ISO-10303-21;
HEADER;
FILE_DESCRIPTION (( 'STEP AP203' ),
    '1' );
FILE_NAME ('pixhawk_gps_mount.STEP',
    '2025-06-10T03:47:26',
    ( '' ),
    ( '' ),
    'SwSTEP 2.0',
    'SolidWorks 2023',
    '' );
FILE_SCHEMA (( 'CONFIG_CONTROL_DESIGN' ));
ENDSEC;

DATA;
#1 = ORIENTED_EDGE ( 'NONE', *, *, #537, .F. ) ;
#2 = CARTESIAN_POINT ( 'NONE',  ( 60.00000000000000000, -55.00000000000000000, 67.79296840621499598 ) ) ;
#3 = LINE ( 'NONE', #657, #169 ) ;
#4 = APPLICATION_CONTEXT ( 'configuration controlled 3d designs of mechanical parts and assemblies' ) ;
#5 = ORIENTED_EDGE ( 'NONE', *, *, #102, .F. ) ;
#6 = COORDINATED_UNIVERSAL_TIME_OFFSET ( 5, 30, .AHEAD. ) ;
#7 = DIRECTION ( 'NONE',  ( -1.000000000000000000, 0.000000000000000000, 0.000000000000000000 ) ) ;
#8 = CARTESIAN_POINT ( 'NONE',  ( 60.00000000000000000, -100.0000000000000000, 62.00000000000000000 ) ) ;
#9 = CC_DESIGN_DATE_AND_TIME_ASSIGNMENT ( #666, #234, ( #344 ) ) ;
#10 = APPROVAL_PERSON_ORGANIZATION ( #809, #631, #673 ) ;
#11 = ORIENTED_EDGE ( 'NONE', *, *, #299, .T. ) ;
#12 = APPROVAL_DATE_TIME ( #297, #951 ) ;
#13 = DIRECTION ( 'NONE',  ( 0.000000000000000000, 0.000000000000000000, 1.000000000000000000 ) ) ;
#14 = VECTOR ( 'NONE', #59, 1000.000000000000000 ) ;
#15 = DIRECTION ( 'NONE',  ( 0.000000000000000000, 0.000000000000000000, 1.000000000000000000 ) ) ;
#16 = VECTOR ( 'NONE', #388, 1000.000000000000000 ) ;
#17 = ORIENTED_EDGE ( 'NONE', *, *, #748, .T. ) ;
#18 = VERTEX_POINT ( 'NONE', #351 ) ;
#19 = COORDINATED_UNIVERSAL_TIME_OFFSET ( 5, 30, .AHEAD. ) ;
#20 = DIRECTION ( 'NONE',  ( -0.000000000000000000, 1.000000000000000000, 0.000000000000000000 ) ) ;
#21 = LINE ( 'NONE', #755, #94 ) ;
#22 = ORIENTED_EDGE ( 'NONE', *, *, #71, .T. ) ;
#23 = DIRECTION ( 'NONE',  ( 0.000000000000000000, -1.000000000000000000, 0.000000000000000000 ) ) ;
#24 = EDGE_CURVE ( 'NONE', #653, #660, #921, .T. ) ;
#25 = PRODUCT_DEFINITION_FORMATION_WITH_SPECIFIED_SOURCE ( 'ANY', '', #383, .NOT_KNOWN. ) ;
#26 = EDGE_LOOP ( 'NONE', ( #672, #252, #947, #49 ) ) ;
#27 = CARTESIAN_POINT ( 'NONE',  ( 0.000000000000000000, 0.000000000000000000, 7.000000000000000000 ) ) ;
#28 = VECTOR ( 'NONE', #636, 1000.000000000000000 ) ;
#29 = VECTOR ( 'NONE', #615, 1000.000000000000000 ) ;
#30 = EDGE_LOOP ( 'NONE', ( #547, #602, #322, #5 ) ) ;
#31 = DIRECTION ( 'NONE',  ( 0.000000000000000000, 1.000000000000000000, 0.000000000000000000 ) ) ;
#32 = EDGE_LOOP ( 'NONE', ( #166, #941, #891, #236, #193, #635, #462, #423, #785, #762, #334, #828, #443, #457 ) ) ;
#33 = VERTEX_POINT ( 'NONE', #718 ) ;
#34 = CARTESIAN_POINT ( 'NONE',  ( -5.495741650034529968, -55.00000000000000000, 0.000000000000000000 ) ) ;
#35 = DIRECTION ( 'NONE',  ( 1.000000000000000000, 0.000000000000000000, 0.000000000000000000 ) ) ;
#36 = ORIENTED_EDGE ( 'NONE', *, *, #99, .F. ) ;
#37 = EDGE_CURVE ( 'NONE', #916, #96, #782, .T. ) ;
#38 = CARTESIAN_POINT ( 'NONE',  ( 60.49574165003449622, 0.000000000000000000, 62.79296840621499598 ) ) ;
#39 = CARTESIAN_POINT ( 'NONE',  ( -5.495741650034529968, -55.00000000000000000, -45.33434874666149739 ) ) ;
#40 = CARTESIAN_POINT ( 'NONE',  ( 60.00000000000000000, -55.00000000000000000, 62.00000000000000000 ) ) ;
#41 = EDGE_CURVE ( 'NONE', #259, #290, #488, .T. ) ;
#42 = ORIENTED_EDGE ( 'NONE', *, *, #226, .F. ) ;
#43 = VECTOR ( 'NONE', #884, 1000.000000000000000 ) ;
#44 = CARTESIAN_POINT ( 'NONE',  ( 60.00000000000000000, -100.0000000000000000, 7.000000000000000000 ) ) ;
#45 = DIRECTION ( 'NONE',  ( 0.000000000000000000, 0.000000000000000000, -1.000000000000000000 ) ) ;
#46 = AXIS2_PLACEMENT_3D ( 'NONE', #156, #610, #751 ) ;
#47 = CARTESIAN_POINT ( 'NONE',  ( 34.00000000000000000, -94.39936655614370409, 62.00000000000000000 ) ) ;
#48 = VERTEX_POINT ( 'NONE', #411 ) ;
#49 = ORIENTED_EDGE ( 'NONE', *, *, #606, .F. ) ;
#50 = CARTESIAN_POINT ( 'NONE',  ( 0.000000000000000000, -100.0000000000000000, 57.00000000000000000 ) ) ;
#51 = EDGE_LOOP ( 'NONE', ( #738, #583, #296, #87 ) ) ;
#52 = EDGE_CURVE ( 'NONE', #189, #431, #197, .T. ) ;
#53 = FACE_OUTER_BOUND ( 'NONE', #612, .T. ) ;
#54 = DIRECTION ( 'NONE',  ( -1.224646799147353947E-16, 1.000000000000000000, 0.000000000000000000 ) ) ;
#55 = VERTEX_POINT ( 'NONE', #111 ) ;
#56 = LINE ( 'NONE', #254, #729 ) ;
#57 = AXIS2_PLACEMENT_3D ( 'NONE', #923, #335, #932 ) ;
#58 = AXIS2_PLACEMENT_3D ( 'NONE', #908, #552, #323 ) ;
#59 = DIRECTION ( 'NONE',  ( 1.000000000000000000, 0.000000000000000000, 0.000000000000000000 ) ) ;
#60 = CARTESIAN_POINT ( 'NONE',  ( 5.000000000000000000, -55.00000000000000000, 62.00000000000000000 ) ) ;
#61 = CYLINDRICAL_SURFACE ( 'NONE', #500, 5.000000000000000000 ) ;
#62 = ORIENTED_EDGE ( 'NONE', *, *, #925, .T. ) ;
#63 = DIRECTION ( 'NONE',  ( 0.000000000000000000, 0.000000000000000000, -1.000000000000000000 ) ) ;
#64 = ADVANCED_FACE ( 'NONE', ( #504 ), #348, .T. ) ;
#65 = CARTESIAN_POINT ( 'NONE',  ( 60.00000000000000000, -5.000000000000000000, 7.000000000000000000 ) ) ;
#66 = EDGE_CURVE ( 'NONE', #124, #660, #343, .T. ) ;
#67 = CARTESIAN_POINT ( 'NONE',  ( -5.495741650034529968, -100.0000000000000000, 62.79296840621499598 ) ) ;
#68 = ORIENTED_EDGE ( 'NONE', *, *, #421, .F. ) ;
#69 = CALENDAR_DATE ( 2025, 10, 6 ) ;
#70 = CARTESIAN_POINT ( 'NONE',  ( 0.000000000000000000, 0.000000000000000000, 0.000000000000000000 ) ) ;
#71 = EDGE_CURVE ( 'NONE', #818, #648, #190, .T. ) ;
#72 = FACE_OUTER_BOUND ( 'NONE', #931, .T. ) ;
#73 = ORIENTED_EDGE ( 'NONE', *, *, #125, .F. ) ;
#74 = ORIENTED_EDGE ( 'NONE', *, *, #783, .T. ) ;
#75 = CIRCLE ( 'NONE', #802, 5.000000000000000888 ) ;
#76 = COORDINATED_UNIVERSAL_TIME_OFFSET ( 5, 30, .AHEAD. ) ;
#77 = LINE ( 'NONE', #955, #14 ) ;
#78 = CIRCLE ( 'NONE', #258, 5.000000000000000888 ) ;
#79 = DIRECTION ( 'NONE',  ( 0.000000000000000000, -1.000000000000000000, 0.000000000000000000 ) ) ;
#80 = ORIENTED_EDGE ( 'NONE', *, *, #618, .F. ) ;
#81 = ORIENTED_EDGE ( 'NONE', *, *, #239, .T. ) ;
#82 = APPLICATION_PROTOCOL_DEFINITION ( 'international standard', 'config_control_design', 1994, #4 ) ;
#83 = PLANE ( 'NONE',  #501 ) ;
#84 = ADVANCED_FACE ( 'NONE', ( #117 ), #706, .T. ) ;
#85 =( LENGTH_UNIT ( ) NAMED_UNIT ( * ) SI_UNIT ( .MILLI., .METRE. ) );
#86 = ORIENTED_EDGE ( 'NONE', *, *, #37, .F. ) ;
#87 = ORIENTED_EDGE ( 'NONE', *, *, #41, .F. ) ;
#88 = PERSON_AND_ORGANIZATION ( #622, #253 ) ;
#89 = DIRECTION ( 'NONE',  ( 0.000000000000000000, -1.000000000000000000, 0.000000000000000000 ) ) ;
#90 = VERTEX_POINT ( 'NONE', #187 ) ;
#91 = CARTESIAN_POINT ( 'NONE',  ( 5.000000000000000000, -100.0000000000000000, 57.00000000000000000 ) ) ;
#92 = CIRCLE ( 'NONE', #58, 5.000000000000000000 ) ;
#93 = PLANE ( 'NONE',  #475 ) ;
#94 = VECTOR ( 'NONE', #312, 1000.000000000000000 ) ;
#95 = ORIENTED_EDGE ( 'NONE', *, *, #928, .F. ) ;
#96 = VERTEX_POINT ( 'NONE', #787 ) ;
#97 = CARTESIAN_POINT ( 'NONE',  ( 26.00000000000000000, -86.39936655614370409, 49.79296840621499598 ) ) ;
#98 = CARTESIAN_POINT ( 'NONE',  ( 0.000000000000000000, 0.000000000000000000, 0.000000000000000000 ) ) ;
#99 = EDGE_CURVE ( 'NONE', #776, #294, #854, .T. ) ;
#100 = ORIENTED_EDGE ( 'NONE', *, *, #299, .F. ) ;
#101 = CARTESIAN_POINT ( 'NONE',  ( 5.000000000000000000, -55.00000000000000000, 62.00000000000000000 ) ) ;
#102 = EDGE_CURVE ( 'NONE', #916, #818, #274, .T. ) ;
#103 = VERTEX_POINT ( 'NONE', #494 ) ;
#104 = CARTESIAN_POINT ( 'NONE',  ( 5.000000000000000000, 0.000000000000000000, 7.000000000000000000 ) ) ;
#105 = VECTOR ( 'NONE', #280, 1000.000000000000000 ) ;
#106 = VERTEX_POINT ( 'NONE', #201 ) ;
#107 = FACE_OUTER_BOUND ( 'NONE', #625, .T. ) ;
#108 = CARTESIAN_POINT ( 'NONE',  ( 34.00000000000000000, -94.39936655614370409, 67.79296840621499598 ) ) ;
#109 = ADVANCED_FACE ( 'NONE', ( #53 ), #711, .T. ) ;
#110 = ORIENTED_EDGE ( 'NONE', *, *, #478, .T. ) ;
#111 = CARTESIAN_POINT ( 'NONE',  ( 55.00000000000000000, 0.000000000000000000, 7.000000000000000000 ) ) ;
#112 = DIRECTION ( 'NONE',  ( 0.000000000000000000, 0.000000000000000000, -1.000000000000000000 ) ) ;
#113 = ADVANCED_FACE ( 'NONE', ( #642 ), #795, .T. ) ;
#114 = LINE ( 'NONE', #577, #434 ) ;
#115 = ORIENTED_EDGE ( 'NONE', *, *, #495, .T. ) ;
#116 = CARTESIAN_POINT ( 'NONE',  ( 26.00000000000000000, -94.39936655614370409, 67.79296840621499598 ) ) ;
#117 = FACE_OUTER_BOUND ( 'NONE', #705, .T. ) ;
#118 = CARTESIAN_POINT ( 'NONE',  ( 34.00000000000000000, -86.39936655614370409, 67.79296840621499598 ) ) ;
#119 = ORIENTED_EDGE ( 'NONE', *, *, #99, .T. ) ;
#120 = VECTOR ( 'NONE', #184, 1000.000000000000000 ) ;
#121 = CIRCLE ( 'NONE', #773, 4.999999999999997335 ) ;
#122 = ORIENTED_EDGE ( 'NONE', *, *, #405, .F. ) ;
#123 = FACE_OUTER_BOUND ( 'NONE', #554, .T. ) ;
#124 = VERTEX_POINT ( 'NONE', #726 ) ;
#125 = EDGE_CURVE ( 'NONE', #259, #887, #56, .T. ) ;
#126 = CARTESIAN_POINT ( 'NONE',  ( 0.000000000000000000, 0.000000000000000000, 0.000000000000000000 ) ) ;
#127 = ADVANCED_FACE ( 'NONE', ( #848 ), #182, .T. ) ;
#128 = CARTESIAN_POINT ( 'NONE',  ( -0.4957416500345269150, -55.00000000000000000, 67.79296840621499598 ) ) ;
#129 = ORIENTED_EDGE ( 'NONE', *, *, #830, .F. ) ;
#130 = CARTESIAN_POINT ( 'NONE',  ( 0.000000000000000000, -100.0000000000000000, -45.33434874666149739 ) ) ;
#131 = DIRECTION ( 'NONE',  ( 0.000000000000000000, -1.000000000000000000, 0.000000000000000000 ) ) ;
#132 = DIRECTION ( 'NONE',  ( 0.000000000000000000, 1.000000000000000000, 0.000000000000000000 ) ) ;
#133 = DIRECTION ( 'NONE',  ( 0.000000000000000000, 1.000000000000000000, 0.000000000000000000 ) ) ;
#134 = AXIS2_PLACEMENT_3D ( 'NONE', #70, #667, #148 ) ;
#135 = VECTOR ( 'NONE', #815, 1000.000000000000000 ) ;
#136 = ORIENTED_EDGE ( 'NONE', *, *, #446, .T. ) ;
#137 = LINE ( 'NONE', #514, #473 ) ;
#138 = EDGE_CURVE ( 'NONE', #290, #229, #287, .T. ) ;
#139 = CARTESIAN_POINT ( 'NONE',  ( 65.49574165003450332, -55.00000000000000000, 7.000000000000000000 ) ) ;
#140 = DIRECTION ( 'NONE',  ( 0.000000000000000000, -1.000000000000000000, 0.000000000000000000 ) ) ;
#141 = ORIENTED_EDGE ( 'NONE', *, *, #856, .F. ) ;
#142 = PERSON_AND_ORGANIZATION_ROLE ( 'creator' ) ;
#143 = EDGE_CURVE ( 'NONE', #904, #468, #75, .T. ) ;
#144 = CARTESIAN_POINT ( 'NONE',  ( 65.49574165003450332, -55.00000000000000000, 62.79296840621499598 ) ) ;
#145 = CARTESIAN_POINT ( 'NONE',  ( 26.00000000000000000, -94.39936655614370409, 62.00000000000000000 ) ) ;
#146 = VERTEX_POINT ( 'NONE', #67 ) ;
#147 = COORDINATED_UNIVERSAL_TIME_OFFSET ( 5, 30, .AHEAD. ) ;
#148 = DIRECTION ( 'NONE',  ( 0.000000000000000000, -1.000000000000000000, 0.000000000000000000 ) ) ;
#149 = LINE ( 'NONE', #886, #613 ) ;
#150 = LOCAL_TIME ( 9, 17, 26.00000000000000000, #147 ) ;
#151 = ADVANCED_FACE ( 'NONE', ( #205 ), #655, .T. ) ;
#152 = EDGE_LOOP ( 'NONE', ( #569, #180, #913, #725 ) ) ;
#153 = PERSON_AND_ORGANIZATION_ROLE ( 'design_owner' ) ;
#154 = CARTESIAN_POINT ( 'NONE',  ( -5.495741650034529968, -55.00000000000000000, 7.000000000000000000 ) ) ;
#155 = AXIS2_PLACEMENT_3D ( 'NONE', #91, #682, #766 ) ;
#156 = CARTESIAN_POINT ( 'NONE',  ( -0.4957416500345249721, -55.00000000000000000, 62.79296840621499598 ) ) ;
#157 = ADVANCED_FACE ( 'NONE', ( #733 ), #807, .F. ) ;
#158 = ORIENTED_EDGE ( 'NONE', *, *, #315, .F. ) ;
#159 = APPROVAL_DATE_TIME ( #392, #177 ) ;
#160 = CARTESIAN_POINT ( 'NONE',  ( 0.000000000000000000, -100.0000000000000000, -45.33434874666149739 ) ) ;
#161 =( NAMED_UNIT ( * ) SI_UNIT ( $, .STERADIAN. ) SOLID_ANGLE_UNIT ( ) );
#162 = ORIENTED_EDGE ( 'NONE', *, *, #920, .T. ) ;
#163 = ORIENTED_EDGE ( 'NONE', *, *, #912, .F. ) ;
#164 = CARTESIAN_POINT ( 'NONE',  ( 60.49574165003449622, -55.00000000000000000, 67.79296840621499598 ) ) ;
#165 = EDGE_LOOP ( 'NONE', ( #680, #702, #301, #791, #399, #557 ) ) ;
#166 = ORIENTED_EDGE ( 'NONE', *, *, #719, .T. ) ;
#167 = LINE ( 'NONE', #235, #29 ) ;
#168 = VECTOR ( 'NONE', #728, 1000.000000000000227 ) ;
#169 = VECTOR ( 'NONE', #879, 1000.000000000000000 ) ;
#170 = CC_DESIGN_PERSON_AND_ORGANIZATION_ASSIGNMENT ( #458, #813, ( #770 ) ) ;
#171 = EDGE_LOOP ( 'NONE', ( #163, #575, #952, #283 ) ) ;
#172 = FACE_OUTER_BOUND ( 'NONE', #899, .T. ) ;
#173 = ADVANCED_FACE ( 'NONE', ( #659 ), #61, .F. ) ;
#174 = ORIENTED_EDGE ( 'NONE', *, *, #731, .T. ) ;
#175 = LINE ( 'NONE', #247, #956 ) ;
#176 = ORIENTED_EDGE ( 'NONE', *, *, #768, .T. ) ;
#177 = APPROVAL ( #753, 'UNSPECIFIED' ) ;
#178 = CARTESIAN_POINT ( 'NONE',  ( 5.000000000000000000, -55.00000000000000000, 7.000000000000000000 ) ) ;
#179 = CARTESIAN_POINT ( 'NONE',  ( 60.49574165003449622, -100.0000000000000000, 67.79296840621499598 ) ) ;
#180 = ORIENTED_EDGE ( 'NONE', *, *, #267, .T. ) ;
#181 = VECTOR ( 'NONE', #793, 1000.000000000000000 ) ;
#182 = PLANE ( 'NONE',  #712 ) ;
#183 = DIRECTION ( 'NONE',  ( 0.000000000000000000, 1.000000000000000000, 0.000000000000000000 ) ) ;
#184 = DIRECTION ( 'NONE',  ( 0.000000000000000000, 0.000000000000000000, 1.000000000000000000 ) ) ;
#185 = ORIENTED_EDGE ( 'NONE', *, *, #885, .F. ) ;
#186 = CARTESIAN_POINT ( 'NONE',  ( -5.495741650034529968, -55.00000000000000000, 0.000000000000000000 ) ) ;
#187 = CARTESIAN_POINT ( 'NONE',  ( 5.182946219779389752E-15, -42.32196763497815795, 0.000000000000000000 ) ) ;
#188 = DIRECTION ( 'NONE',  ( 0.000000000000000000, 0.000000000000000000, 1.000000000000000000 ) ) ;
#189 = VERTEX_POINT ( 'NONE', #874 ) ;
#190 = LINE ( 'NONE', #261, #937 ) ;
#191 = CC_DESIGN_APPROVAL ( #951, ( #770 ) ) ;
#192 = DIRECTION ( 'NONE',  ( 0.000000000000000000, -1.000000000000000000, 0.000000000000000000 ) ) ;
#193 = ORIENTED_EDGE ( 'NONE', *, *, #248, .F. ) ;
#194 = CC_DESIGN_PERSON_AND_ORGANIZATION_ASSIGNMENT ( #302, #224, ( #344 ) ) ;
#195 = AXIS2_PLACEMENT_3D ( 'NONE', #40, #337, #639 ) ;
#196 = AXIS2_PLACEMENT_3D ( 'NONE', #474, #317, #905 ) ;
#197 = LINE ( 'NONE', #418, #515 ) ;
#198 = LINE ( 'NONE', #505, #181 ) ;
#199 = EDGE_CURVE ( 'NONE', #294, #218, #210, .T. ) ;
#200 = ORIENTED_EDGE ( 'NONE', *, *, #790, .T. ) ;
#201 = CARTESIAN_POINT ( 'NONE',  ( 5.182946219779389752E-15, -42.32196763497815795, 7.000000000000000000 ) ) ;
#202 = DIRECTION ( 'NONE',  ( 0.000000000000000000, 0.000000000000000000, 1.000000000000000000 ) ) ;
#203 = ORIENTED_EDGE ( 'NONE', *, *, #405, .T. ) ;
#204 = CARTESIAN_POINT ( 'NONE',  ( 60.00000000000000000, -42.32196763497815795, 7.000000000000000000 ) ) ;
#205 = FACE_OUTER_BOUND ( 'NONE', #550, .T. ) ;
#206 = CC_DESIGN_DATE_AND_TIME_ASSIGNMENT ( #450, #739, ( #770 ) ) ;
#207 = ORIENTED_EDGE ( 'NONE', *, *, #328, .T. ) ;
#208 = CARTESIAN_POINT ( 'NONE',  ( 26.00000000000000000, -94.39936655614370409, 49.79296840621499598 ) ) ;
#209 = DIRECTION ( 'NONE',  ( 0.000000000000000000, 0.000000000000000000, 1.000000000000000000 ) ) ;
#210 = LINE ( 'NONE', #664, #696 ) ;
#211 = VECTOR ( 'NONE', #844, 1000.000000000000227 ) ;
#212 = CIRCLE ( 'NONE', #715, 5.000000000000004441 ) ;
#213 = EDGE_LOOP ( 'NONE', ( #68, #376, #721, #100 ) ) ;
#214 = DIRECTION ( 'NONE',  ( 0.000000000000000000, 0.000000000000000000, 1.000000000000000000 ) ) ;
#215 = DIRECTION ( 'NONE',  ( 1.000000000000000000, 1.224646799147353947E-16, 0.000000000000000000 ) ) ;
#216 = LINE ( 'NONE', #732, #805 ) ;
#217 = CARTESIAN_POINT ( 'NONE',  ( 26.00000000000000000, -86.39936655614370409, 49.79296840621499598 ) ) ;
#218 = VERTEX_POINT ( 'NONE', #950 ) ;
#219 = COORDINATED_UNIVERSAL_TIME_OFFSET ( 5, 30, .AHEAD. ) ;
#220 = LINE ( 'NONE', #377, #760 ) ;
#221 = LINE ( 'NONE', #454, #595 ) ;
#222 = VERTEX_POINT ( 'NONE', #279 ) ;
#223 = ORIENTED_EDGE ( 'NONE', *, *, #758, .T. ) ;
#224 = PERSON_AND_ORGANIZATION_ROLE ( 'creator' ) ;
#225 = CARTESIAN_POINT ( 'NONE',  ( 60.00000000000000000, -100.0000000000000000, 12.00000000000000000 ) ) ;
#226 = EDGE_CURVE ( 'NONE', #33, #532, #880, .T. ) ;
#227 = DIRECTION ( 'NONE',  ( 1.000000000000000000, 0.000000000000000000, 0.000000000000000000 ) ) ;
#228 = EDGE_CURVE ( 'NONE', #904, #687, #871, .T. ) ;
#229 = VERTEX_POINT ( 'NONE', #118 ) ;
#230 = PERSON_AND_ORGANIZATION ( #622, #253 ) ;
#231 = DIRECTION ( 'NONE',  ( 0.000000000000000000, 0.000000000000000000, -1.000000000000000000 ) ) ;
#232 = CIRCLE ( 'NONE', #308, 4.999999999999997335 ) ;
#233 = VERTEX_POINT ( 'NONE', #714 ) ;
#234 = DATE_TIME_ROLE ( 'creation_date' ) ;
#235 = CARTESIAN_POINT ( 'NONE',  ( 0.000000000000000000, -55.00000000000000000, -45.33434874666149739 ) ) ;
#236 = ORIENTED_EDGE ( 'NONE', *, *, #831, .T. ) ;
#237 = ORIENTED_EDGE ( 'NONE', *, *, #226, .T. ) ;
#238 = DIRECTION ( 'NONE',  ( 0.000000000000000000, 1.000000000000000000, 0.000000000000000000 ) ) ;
#239 = EDGE_CURVE ( 'NONE', #648, #55, #788, .T. ) ;
#240 = DIRECTION ( 'NONE',  ( 0.000000000000000000, -1.000000000000000000, 0.000000000000000000 ) ) ;
#241 = CC_DESIGN_APPROVAL ( #631, ( #25 ) ) ;
#242 = ADVANCED_FACE ( 'NONE', ( #333 ), #329, .F. ) ;
#243 = ORIENTED_EDGE ( 'NONE', *, *, #764, .F. ) ;
#244 = PLANE ( 'NONE',  #517 ) ;
#245 = VECTOR ( 'NONE', #433, 1000.000000000000000 ) ;
#246 = ORIENTED_EDGE ( 'NONE', *, *, #228, .T. ) ;
#247 = CARTESIAN_POINT ( 'NONE',  ( 60.00000000000000000, -55.00000000000000000, -45.33434874666149739 ) ) ;
#248 = EDGE_CURVE ( 'NONE', #687, #350, #567, .T. ) ;
#249 = ORIENTED_EDGE ( 'NONE', *, *, #453, .T. ) ;
#250 = CARTESIAN_POINT ( 'NONE',  ( 0.000000000000000000, 0.000000000000000000, 0.000000000000000000 ) ) ;
#251 = CARTESIAN_POINT ( 'NONE',  ( 0.000000000000000000, 0.000000000000000000, 7.000000000000000000 ) ) ;
#252 = ORIENTED_EDGE ( 'NONE', *, *, #199, .F. ) ;
#253 = ORGANIZATION ( 'UNSPECIFIED', 'UNSPECIFIED', '' ) ;
#254 = CARTESIAN_POINT ( 'NONE',  ( 60.00000000000000000, -94.39936655614370409, 62.00000000000000000 ) ) ;
#255 = DIRECTION ( 'NONE',  ( 1.224646799147353947E-16, -1.000000000000000000, 0.000000000000000000 ) ) ;
#256 = CARTESIAN_POINT ( 'NONE',  ( 55.00000000000000000, -55.00000000000000000, 57.00000000000000000 ) ) ;
#257 = VECTOR ( 'NONE', #585, 1000.000000000000000 ) ;
#258 = AXIS2_PLACEMENT_3D ( 'NONE', #740, #889, #735 ) ;
#259 = VERTEX_POINT ( 'NONE', #47 ) ;
#260 = VECTOR ( 'NONE', #209, 1000.000000000000000 ) ;
#261 = CARTESIAN_POINT ( 'NONE',  ( 60.00000000000000000, 0.000000000000000000, 7.000000000000000000 ) ) ;
#262 = DIRECTION ( 'NONE',  ( 0.000000000000000000, -1.000000000000000000, 0.000000000000000000 ) ) ;
#263 = EDGE_LOOP ( 'NONE', ( #869, #840, #1, #846 ) ) ;
#264 = EDGE_CURVE ( 'NONE', #887, #33, #485, .T. ) ;
#265 = DIRECTION ( 'NONE',  ( -0.9175047238679603367, 0.3977248818969941202, 0.000000000000000000 ) ) ;
#266 = FACE_OUTER_BOUND ( 'NONE', #32, .T. ) ;
#267 = EDGE_CURVE ( 'NONE', #330, #506, #114, .T. ) ;
#268 = EDGE_LOOP ( 'NONE', ( #80, #767, #756, #812 ) ) ;
#269 = DIRECTION ( 'NONE',  ( 0.000000000000000000, 1.000000000000000000, 0.000000000000000000 ) ) ;
#270 = ADVANCED_FACE ( 'NONE', ( #123 ), #634, .T. ) ;
#271 = DIRECTION ( 'NONE',  ( 1.224646799147353947E-16, -1.000000000000000000, 0.000000000000000000 ) ) ;
#272 = ORIENTED_EDGE ( 'NONE', *, *, #758, .F. ) ;
#273 = AXIS2_PLACEMENT_3D ( 'NONE', #27, #627, #637 ) ;
#274 = LINE ( 'NONE', #632, #28 ) ;
#275 = DIRECTION ( 'NONE',  ( -1.000000000000000000, 0.000000000000000000, 0.000000000000000000 ) ) ;
#276 = ORIENTED_EDGE ( 'NONE', *, *, #446, .F. ) ;
#277 = CARTESIAN_POINT ( 'NONE',  ( 34.00000000000000000, -55.00000000000000000, 62.00000000000000000 ) ) ;
#278 = ADVANCED_FACE ( 'NONE', ( #933, #430 ), #630, .T. ) ;
#279 = CARTESIAN_POINT ( 'NONE',  ( 55.00000000000000000, -55.00000000000000000, 62.00000000000000000 ) ) ;
#280 = DIRECTION ( 'NONE',  ( 0.000000000000000000, -1.000000000000000000, 0.000000000000000000 ) ) ;
#281 = CARTESIAN_POINT ( 'NONE',  ( 65.49574165003450332, -55.00000000000000000, 0.000000000000000000 ) ) ;
#282 = DIRECTION ( 'NONE',  ( 0.000000000000000000, 1.000000000000000000, 0.000000000000000000 ) ) ;
#283 = ORIENTED_EDGE ( 'NONE', *, *, #928, .T. ) ;
#284 = CARTESIAN_POINT ( 'NONE',  ( 65.49574165003450332, -100.0000000000000000, 0.000000000000000000 ) ) ;
#285 = APPROVAL_PERSON_ORGANIZATION ( #88, #177, #309 ) ;
#286 = LINE ( 'NONE', #281, #486 ) ;
#287 = LINE ( 'NONE', #363, #338 ) ;
#288 = AXIS2_PLACEMENT_3D ( 'NONE', #661, #586, #202 ) ;
#289 = AXIS2_PLACEMENT_3D ( 'NONE', #44, #524, #356 ) ;
#290 = VERTEX_POINT ( 'NONE', #108 ) ;
#291 = SHAPE_DEFINITION_REPRESENTATION ( #747, #826 ) ;
#292 = LINE ( 'NONE', #948, #638 ) ;
#293 = CARTESIAN_POINT ( 'NONE',  ( 0.000000000000000000, -100.0000000000000000, 12.00000000000000000 ) ) ;
#294 = VERTEX_POINT ( 'NONE', #926 ) ;
#295 = ADVANCED_FACE ( 'NONE', ( #419 ), #704, .F. ) ;
#296 = ORIENTED_EDGE ( 'NONE', *, *, #764, .T. ) ;
#297 = DATE_AND_TIME ( #954, #416 ) ;
#298 = CARTESIAN_POINT ( 'NONE',  ( 60.00000000000000000, -100.0000000000000000, 12.00000000000000000 ) ) ;
#299 = EDGE_CURVE ( 'NONE', #822, #904, #496, .T. ) ;
#300 = LINE ( 'NONE', #441, #424 ) ;
#301 = ORIENTED_EDGE ( 'NONE', *, *, #925, .F. ) ;
#302 = PERSON_AND_ORGANIZATION ( #622, #253 ) ;
#303 = PLANE ( 'NONE',  #196 ) ;
#304 =( GEOMETRIC_REPRESENTATION_CONTEXT ( 3 ) GLOBAL_UNCERTAINTY_ASSIGNED_CONTEXT ( ( #601 ) ) GLOBAL_UNIT_ASSIGNED_CONTEXT ( ( #85, #678, #161 ) ) REPRESENTATION_CONTEXT ( 'NONE', 'WORKASPACE' ) );
#305 = CARTESIAN_POINT ( 'NONE',  ( -5.495741650034529968, -55.00000000000000000, -45.33434874666149739 ) ) ;
#306 = AXIS2_PLACEMENT_3D ( 'NONE', #943, #133, #438 ) ;
#307 = ORIENTED_EDGE ( 'NONE', *, *, #596, .F. ) ;
#308 = AXIS2_PLACEMENT_3D ( 'NONE', #789, #426, #720 ) ;
#309 = APPROVAL_ROLE ( '' ) ;
#310 = FACE_OUTER_BOUND ( 'NONE', #30, .T. ) ;
#311 = CIRCLE ( 'NONE', #670, 5.000000000000004441 ) ;
#312 = DIRECTION ( 'NONE',  ( 0.000000000000000000, 0.000000000000000000, 1.000000000000000000 ) ) ;
#313 = ADVANCED_FACE ( 'NONE', ( #266 ), #775, .T. ) ;
#314 = VERTEX_POINT ( 'NONE', #179 ) ;
#315 = EDGE_CURVE ( 'NONE', #48, #314, #311, .T. ) ;
#316 = VERTEX_POINT ( 'NONE', #559 ) ;
#317 = DIRECTION ( 'NONE',  ( -1.000000000000000000, 0.000000000000000000, 0.000000000000000000 ) ) ;
#318 = DIRECTION ( 'NONE',  ( 0.000000000000000000, 0.000000000000000000, 1.000000000000000000 ) ) ;
#319 = EDGE_CURVE ( 'NONE', #533, #316, #232, .T. ) ;
#320 = VERTEX_POINT ( 'NONE', #50 ) ;
#321 = DIRECTION ( 'NONE',  ( 0.000000000000000000, 1.000000000000000000, 0.000000000000000000 ) ) ;
#322 = ORIENTED_EDGE ( 'NONE', *, *, #71, .F. ) ;
#323 = DIRECTION ( 'NONE',  ( -1.000000000000000000, 0.000000000000000000, 0.000000000000000000 ) ) ;
#324 = VECTOR ( 'NONE', #778, 1000.000000000000000 ) ;
#325 = EDGE_CURVE ( 'NONE', #817, #106, #647, .T. ) ;
#326 = ORIENTED_EDGE ( 'NONE', *, *, #347, .T. ) ;
#327 = DIRECTION ( 'NONE',  ( 0.000000000000000000, -1.000000000000000000, 0.000000000000000000 ) ) ;
#328 = EDGE_CURVE ( 'NONE', #18, #229, #198, .T. ) ;
#329 = CYLINDRICAL_SURFACE ( 'NONE', #668, 4.999999999999997335 ) ;
#330 = VERTEX_POINT ( 'NONE', #128 ) ;
#331 = EDGE_LOOP ( 'NONE', ( #62, #249, #390, #808, #74 ) ) ;
#332 = DIRECTION ( 'NONE',  ( 0.9175047238679603367, 0.3977248818969941202, 0.000000000000000000 ) ) ;
#333 = FACE_OUTER_BOUND ( 'NONE', #857, .T. ) ;
#334 = ORIENTED_EDGE ( 'NONE', *, *, #700, .T. ) ;
#335 = DIRECTION ( 'NONE',  ( 0.000000000000000000, -1.000000000000000000, 0.000000000000000000 ) ) ;
#336 = CARTESIAN_POINT ( 'NONE',  ( 5.000000000000000000, -5.000000000000000000, 0.000000000000000000 ) ) ;
#337 = DIRECTION ( 'NONE',  ( 0.000000000000000000, 0.000000000000000000, -1.000000000000000000 ) ) ;
#338 = VECTOR ( 'NONE', #946, 1000.000000000000000 ) ;
#339 = VECTOR ( 'NONE', #774, 1000.000000000000000 ) ;
#340 = ORIENTED_EDGE ( 'NONE', *, *, #264, .F. ) ;
#341 = ADVANCED_FACE ( 'NONE', ( #724 ), #451, .T. ) ;
#342 = CIRCLE ( 'NONE', #46, 5.000000000000004441 ) ;
#343 = LINE ( 'NONE', #646, #953 ) ;
#344 = PRODUCT_DEFINITION ( 'UNKNOWN', '', #25, #759 ) ;
#345 = DIRECTION ( 'NONE',  ( 0.000000000000000000, 1.000000000000000000, 0.000000000000000000 ) ) ;
#346 = ORIENTED_EDGE ( 'NONE', *, *, #325, .T. ) ;
#347 = EDGE_CURVE ( 'NONE', #468, #439, #361, .T. ) ;
#348 = CYLINDRICAL_SURFACE ( 'NONE', #611, 5.000000000000000000 ) ;
#349 = DIRECTION ( 'NONE',  ( 1.000000000000000000, 0.000000000000000000, 0.000000000000000000 ) ) ;
#350 = VERTEX_POINT ( 'NONE', #144 ) ;
#351 = CARTESIAN_POINT ( 'NONE',  ( 34.00000000000000000, -86.39936655614370409, 62.00000000000000000 ) ) ;
#352 = AXIS2_PLACEMENT_3D ( 'NONE', #98, #214, #539 ) ;
#353 = DIRECTION ( 'NONE',  ( 0.000000000000000000, 1.000000000000000000, 0.000000000000000000 ) ) ;
#355 = ORIENTED_EDGE ( 'NONE', *, *, #465, .F. ) ;
#354 = EDGE_CURVE ( 'NONE', #33, #18, #137, .T. ) ;
#356 = DIRECTION ( 'NONE',  ( 1.000000000000000000, 0.000000000000000000, 0.000000000000000000 ) ) ;
#357 = VECTOR ( 'NONE', #35, 1000.000000000000000 ) ;
#358 = AXIS2_PLACEMENT_3D ( 'NONE', #699, #31, #425 ) ;
#359 = DIRECTION ( 'NONE',  ( 0.000000000000000000, -1.000000000000000000, 0.000000000000000000 ) ) ;
#360 = EDGE_CURVE ( 'NONE', #506, #314, #77, .T. ) ;
#361 = LINE ( 'NONE', #225, #105 ) ;
#362 = DIRECTION ( 'NONE',  ( 1.000000000000000000, 0.000000000000000000, 0.000000000000000000 ) ) ;
#363 = CARTESIAN_POINT ( 'NONE',  ( 34.00000000000000000, -86.39936655614370409, 67.79296840621499598 ) ) ;
#364 = ORIENTED_EDGE ( 'NONE', *, *, #618, .T. ) ;
#365 = CARTESIAN_POINT ( 'NONE',  ( -5.495741650034529968, -55.00000000000000000, 0.000000000000000000 ) ) ;
#366 = DIRECTION ( 'NONE',  ( -1.000000000000000000, 0.000000000000000000, 0.000000000000000000 ) ) ;
#367 = DIRECTION ( 'NONE',  ( 0.000000000000000000, 0.000000000000000000, 1.000000000000000000 ) ) ;
#368 = ORIENTED_EDGE ( 'NONE', *, *, #934, .F. ) ;
#369 = APPROVAL_ROLE ( '' ) ;
#370 = FACE_OUTER_BOUND ( 'NONE', #152, .T. ) ;
#371 = PLANE ( 'NONE',  #568 ) ;
#372 = AXIS2_PLACEMENT_3D ( 'NONE', #38, #576, #650 ) ;
#373 = ORIENTED_EDGE ( 'NONE', *, *, #658, .T. ) ;
#374 = CIRCLE ( 'NONE', #155, 4.999999999999997335 ) ;
#375 = CC_DESIGN_PERSON_AND_ORGANIZATION_ASSIGNMENT ( #521, #153, ( #383 ) ) ;
#376 = ORIENTED_EDGE ( 'NONE', *, *, #347, .F. ) ;
#377 = CARTESIAN_POINT ( 'NONE',  ( -5.495741650034529968, -55.00000000000000000, 62.79296840621499598 ) ) ;
#378 = DIRECTION ( 'NONE',  ( -0.3977248818969940647, 0.9175047238679602257, 0.000000000000000000 ) ) ;
#379 = ADVANCED_FACE ( 'NONE', ( #872, #370 ), #582, .F. ) ;
#380 = ORIENTED_EDGE ( 'NONE', *, *, #939, .F. ) ;
#381 = PERSON_AND_ORGANIZATION ( #622, #253 ) ;
#382 = PLANE ( 'NONE',  #422 ) ;
#383 = PRODUCT ( 'pixhawk_gps_mount', 'pixhawk_gps_mount', '', ( #893 ) ) ;
#384 = ORIENTED_EDGE ( 'NONE', *, *, #831, .F. ) ;
#385 = ORIENTED_EDGE ( 'NONE', *, *, #199, .T. ) ;
#386 = CALENDAR_DATE ( 2025, 10, 6 ) ;
#387 = CARTESIAN_POINT ( 'NONE',  ( 65.49574165003450332, -55.00000000000000000, 0.000000000000000000 ) ) ;
#388 = DIRECTION ( 'NONE',  ( 0.000000000000000000, -1.000000000000000000, 0.000000000000000000 ) ) ;
#389 = CC_DESIGN_PERSON_AND_ORGANIZATION_ASSIGNMENT ( #230, #444, ( #25 ) ) ;
#390 = ORIENTED_EDGE ( 'NONE', *, *, #719, .F. ) ;
#391 = VECTOR ( 'NONE', #900, 1000.000000000000000 ) ;
#392 = DATE_AND_TIME ( #386, #481 ) ;
#393 = CARTESIAN_POINT ( 'NONE',  ( -0.4957416500345199761, -100.0000000000000000, 67.79296840621499598 ) ) ;
#394 = VECTOR ( 'NONE', #806, 1000.000000000000000 ) ;
#395 = FACE_OUTER_BOUND ( 'NONE', #331, .T. ) ;
#396 = ORIENTED_EDGE ( 'NONE', *, *, #328, .F. ) ;
#397 = FACE_OUTER_BOUND ( 'NONE', #487, .T. ) ;
#398 = DIRECTION ( 'NONE',  ( 0.000000000000000000, -1.000000000000000000, 0.000000000000000000 ) ) ;
#399 = ORIENTED_EDGE ( 'NONE', *, *, #842, .T. ) ;
#400 = LINE ( 'NONE', #164, #730 ) ;
#401 = APPROVAL_PERSON_ORGANIZATION ( #743, #951, #369 ) ;
#402 = EDGE_CURVE ( 'NONE', #887, #865, #868, .T. ) ;
#403 = ORIENTED_EDGE ( 'NONE', *, *, #478, .F. ) ;
#404 = LINE ( 'NONE', #39, #324 ) ;
#405 = EDGE_CURVE ( 'NONE', #106, #124, #459, .T. ) ;
#406 = AXIS2_PLACEMENT_3D ( 'NONE', #555, #23, #620 ) ;
#407 = ORIENTED_EDGE ( 'NONE', *, *, #621, .F. ) ;
#408 = DIRECTION ( 'NONE',  ( 0.000000000000000000, 0.000000000000000000, -1.000000000000000000 ) ) ;
#409 = DIRECTION ( 'NONE',  ( -1.000000000000000000, 0.000000000000000000, 0.000000000000000000 ) ) ;
#410 = ORIENTED_EDGE ( 'NONE', *, *, #319, .T. ) ;
#411 = CARTESIAN_POINT ( 'NONE',  ( 65.49574165003450332, -100.0000000000000000, 62.79296840621499598 ) ) ;
#412 = CARTESIAN_POINT ( 'NONE',  ( 65.49574165003450332, -55.00000000000000000, 0.000000000000000000 ) ) ;
#413 = CARTESIAN_POINT ( 'NONE',  ( 65.49574165003450332, -55.00000000000000000, -45.33434874666149739 ) ) ;
#414 = ORIENTED_EDGE ( 'NONE', *, *, #888, .F. ) ;
#415 = EDGE_CURVE ( 'NONE', #233, #330, #803, .T. ) ;
#416 = LOCAL_TIME ( 9, 17, 26.00000000000000000, #76 ) ;
#417 = PLANE ( 'NONE',  #289 ) ;
#418 = CARTESIAN_POINT ( 'NONE',  ( 60.00000000000000000, -100.0000000000000000, 0.000000000000000000 ) ) ;
#419 = FACE_OUTER_BOUND ( 'NONE', #263, .T. ) ;
#420 = VECTOR ( 'NONE', #573, 1000.000000000000000 ) ;
#421 = EDGE_CURVE ( 'NONE', #439, #822, #78, .T. ) ;
#422 = AXIS2_PLACEMENT_3D ( 'NONE', #754, #89, #833 ) ;
#423 = ORIENTED_EDGE ( 'NONE', *, *, #556, .T. ) ;
#424 = VECTOR ( 'NONE', #79, 1000.000000000000000 ) ;
#425 = DIRECTION ( 'NONE',  ( 0.000000000000000000, 0.000000000000000000, 1.000000000000000000 ) ) ;
#426 = DIRECTION ( 'NONE',  ( 0.000000000000000000, 1.000000000000000000, 0.000000000000000000 ) ) ;
#427 = VERTEX_POINT ( 'NONE', #365 ) ;
#428 = DIRECTION ( 'NONE',  ( -1.000000000000000000, 0.000000000000000000, 0.000000000000000000 ) ) ;
#429 = ADVANCED_FACE ( 'NONE', ( #944 ), #810, .F. ) ;
#430 = FACE_OUTER_BOUND ( 'NONE', #171, .T. ) ;
#431 = VERTEX_POINT ( 'NONE', #284 ) ;
#432 = DIRECTION ( 'NONE',  ( 0.000000000000000000, 1.000000000000000000, 0.000000000000000000 ) ) ;
#433 = DIRECTION ( 'NONE',  ( -1.000000000000000000, 0.000000000000000000, 0.000000000000000000 ) ) ;
#434 = VECTOR ( 'NONE', #262, 1000.000000000000000 ) ;
#435 = DIRECTION ( 'NONE',  ( 0.000000000000000000, 0.000000000000000000, -1.000000000000000000 ) ) ;
#436 = VECTOR ( 'NONE', #516, 1000.000000000000000 ) ;
#437 = VECTOR ( 'NONE', #15, 1000.000000000000000 ) ;
#438 = DIRECTION ( 'NONE',  ( 0.000000000000000000, 0.000000000000000000, 1.000000000000000000 ) ) ;
#439 = VERTEX_POINT ( 'NONE', #298 ) ;
#440 = DIRECTION ( 'NONE',  ( 0.000000000000000000, 0.000000000000000000, -1.000000000000000000 ) ) ;
#441 = CARTESIAN_POINT ( 'NONE',  ( 65.49574165003450332, -100.0000000000000000, 62.79296840621499598 ) ) ;
#442 = CARTESIAN_POINT ( 'NONE',  ( 34.00000000000000000, -86.39936655614370409, 49.79296840621499598 ) ) ;
#443 = ORIENTED_EDGE ( 'NONE', *, *, #24, .T. ) ;
#444 = PERSON_AND_ORGANIZATION_ROLE ( 'design_supplier' ) ;
#445 = FACE_OUTER_BOUND ( 'NONE', #616, .T. ) ;
#446 = EDGE_CURVE ( 'NONE', #927, #822, #292, .T. ) ;
#447 = LINE ( 'NONE', #873, #260 ) ;
#448 = ADVANCED_FACE ( 'NONE', ( #651 ), #591, .F. ) ;
#449 = ORIENTED_EDGE ( 'NONE', *, *, #537, .T. ) ;
#450 = DATE_AND_TIME ( #823, #150 ) ;
#451 = CYLINDRICAL_SURFACE ( 'NONE', #877, 4.999999999999997335 ) ;
#452 = LOCAL_TIME ( 9, 17, 26.00000000000000000, #219 ) ;
#453 = EDGE_CURVE ( 'NONE', #146, #665, #220, .T. ) ;
#454 = CARTESIAN_POINT ( 'NONE',  ( 26.00000000000000000, -86.39936655614370409, 67.79296840621499598 ) ) ;
#455 = ORIENTED_EDGE ( 'NONE', *, *, #41, .T. ) ;
#456 = CIRCLE ( 'NONE', #578, 5.000000000000000000 ) ;
#457 = ORIENTED_EDGE ( 'NONE', *, *, #66, .F. ) ;
#458 = PERSON_AND_ORGANIZATION ( #622, #253 ) ;
#459 = LINE ( 'NONE', #154, #168 ) ;
#460 = CARTESIAN_POINT ( 'NONE',  ( -5.495741650034529968, -55.00000000000000000, -45.33434874666149739 ) ) ;
#461 = ORIENTED_EDGE ( 'NONE', *, *, #325, .F. ) ;
#462 = ORIENTED_EDGE ( 'NONE', *, *, #143, .T. ) ;
#463 = APPROVAL_STATUS ( 'not_yet_approved' ) ;
#464 = LINE ( 'NONE', #548, #566 ) ;
#465 = EDGE_CURVE ( 'NONE', #90, #106, #599, .T. ) ;
#466 = CARTESIAN_POINT ( 'NONE',  ( 55.00000000000000000, -55.00000000000000000, 57.00000000000000000 ) ) ;
#467 = ORIENTED_EDGE ( 'NONE', *, *, #658, .F. ) ;
#468 = VERTEX_POINT ( 'NONE', #510 ) ;
#469 = DIRECTION ( 'NONE',  ( 1.000000000000000000, 0.000000000000000000, 0.000000000000000000 ) ) ;
#470 = CARTESIAN_POINT ( 'NONE',  ( 60.00000000000000000, -42.32196763497815795, 0.000000000000000000 ) ) ;
#471 = ORIENTED_EDGE ( 'NONE', *, *, #495, .F. ) ;
#472 = ORIENTED_EDGE ( 'NONE', *, *, #102, .T. ) ;
#473 = VECTOR ( 'NONE', #530, 1000.000000000000000 ) ;
#474 = CARTESIAN_POINT ( 'NONE',  ( 60.00000000000000000, 0.000000000000000000, 7.000000000000000000 ) ) ;
#475 = AXIS2_PLACEMENT_3D ( 'NONE', #460, #541, #834 ) ;
#476 = ORIENTED_EDGE ( 'NONE', *, *, #859, .T. ) ;
#477 = CARTESIAN_POINT ( 'NONE',  ( 0.000000000000000000, 0.000000000000000000, 7.000000000000000000 ) ) ;
#478 = EDGE_CURVE ( 'NONE', #532, #865, #797, .T. ) ;
#479 = ORIENTED_EDGE ( 'NONE', *, *, #606, .T. ) ;
#480 = CARTESIAN_POINT ( 'NONE',  ( 0.000000000000000000, -55.00000000000000000, 12.00000000000000000 ) ) ;
#481 = LOCAL_TIME ( 9, 17, 26.00000000000000000, #6 ) ;
#482 = ORIENTED_EDGE ( 'NONE', *, *, #912, .T. ) ;
#483 = CARTESIAN_POINT ( 'NONE',  ( -5.495741650034529968, -55.00000000000000000, 62.79296840621499598 ) ) ;
#484 = AXIS2_PLACEMENT_3D ( 'NONE', #413, #349, #708 ) ;
#485 = LINE ( 'NONE', #779, #895 ) ;
#486 = VECTOR ( 'NONE', #710, 1000.000000000000227 ) ;
#487 = EDGE_LOOP ( 'NONE', ( #22, #81, #935, #590, #346, #203, #780, #843, #136, #11, #246, #176 ) ) ;
#488 = LINE ( 'NONE', #498, #420 ) ;
#489 = LINE ( 'NONE', #633, #746 ) ;
#490 = DIRECTION ( 'NONE',  ( 0.000000000000000000, 0.000000000000000000, 1.000000000000000000 ) ) ;
#491 = ADVANCED_FACE ( 'NONE', ( #445 ), #814, .T. ) ;
#492 = ORIENTED_EDGE ( 'NONE', *, *, #690, .F. ) ;
#493 = DIRECTION ( 'NONE',  ( 0.000000000000000000, 0.000000000000000000, 1.000000000000000000 ) ) ;
#494 = CARTESIAN_POINT ( 'NONE',  ( 6.123233995736771213E-16, -5.000000000000000000, 0.000000000000000000 ) ) ;
#495 = EDGE_CURVE ( 'NONE', #431, #614, #674, .T. ) ;
#496 = LINE ( 'NONE', #784, #564 ) ;
#497 = ORIENTED_EDGE ( 'NONE', *, *, #783, .F. ) ;
#498 = CARTESIAN_POINT ( 'NONE',  ( 34.00000000000000000, -94.39936655614370409, 49.79296840621499598 ) ) ;
#499 = DIRECTION ( 'NONE',  ( 0.000000000000000000, 0.000000000000000000, 1.000000000000000000 ) ) ;
#500 = AXIS2_PLACEMENT_3D ( 'NONE', #588, #140, #597 ) ;
#501 = AXIS2_PLACEMENT_3D ( 'NONE', #477, #617, #757 ) ;
#502 = ORIENTED_EDGE ( 'NONE', *, *, #842, .F. ) ;
#503 = EDGE_CURVE ( 'NONE', #875, #222, #464, .T. ) ;
#504 = FACE_OUTER_BOUND ( 'NONE', #26, .T. ) ;
#505 = CARTESIAN_POINT ( 'NONE',  ( 34.00000000000000000, -86.39936655614370409, 49.79296840621499598 ) ) ;
#506 = VERTEX_POINT ( 'NONE', #393 ) ;
#507 = ADVANCED_FACE ( 'NONE', ( #172 ), #244, .F. ) ;
#508 = DIRECTION ( 'NONE',  ( 0.000000000000000000, 0.000000000000000000, 1.000000000000000000 ) ) ;
#509 = MANIFOLD_SOLID_BREP ( 'NONE', #835 ) ;
#510 = CARTESIAN_POINT ( 'NONE',  ( 60.00000000000000000, -55.00000000000000000, 12.00000000000000000 ) ) ;
#511 = CARTESIAN_POINT ( 'NONE',  ( 60.00000000000000000, -55.00000000000000000, 57.00000000000000000 ) ) ;
#512 = CARTESIAN_POINT ( 'NONE',  ( 0.000000000000000000, -55.00000000000000000, 7.000000000000000000 ) ) ;
#513 = EDGE_LOOP ( 'NONE', ( #122, #355, #373, #162 ) ) ;
#514 = CARTESIAN_POINT ( 'NONE',  ( 60.00000000000000000, -86.39936655614370409, 62.00000000000000000 ) ) ;
#515 = VECTOR ( 'NONE', #858, 1000.000000000000000 ) ;
#516 = DIRECTION ( 'NONE',  ( 0.000000000000000000, -1.000000000000000000, 0.000000000000000000 ) ) ;
#517 = AXIS2_PLACEMENT_3D ( 'NONE', #97, #20, #911 ) ;
#518 = VECTOR ( 'NONE', #227, 1000.000000000000000 ) ;
#519 = DIRECTION ( 'NONE',  ( 0.000000000000000000, 0.000000000000000000, 1.000000000000000000 ) ) ;
#520 = EDGE_LOOP ( 'NONE', ( #607, #603, #243, #403 ) ) ;
#521 = PERSON_AND_ORGANIZATION ( #622, #253 ) ;
#522 = CARTESIAN_POINT ( 'NONE',  ( 26.00000000000000000, -86.39936655614370409, 67.79296840621499598 ) ) ;
#523 = ADVANCED_FACE ( 'NONE', ( #397 ), #83, .F. ) ;
#524 = DIRECTION ( 'NONE',  ( -0.000000000000000000, 1.000000000000000000, 0.000000000000000000 ) ) ;
#525 = APPLICATION_CONTEXT ( 'configuration controlled 3d designs of mechanical parts and assemblies' ) ;
#526 = DIRECTION ( 'NONE',  ( 1.000000000000000000, 0.000000000000000000, 0.000000000000000000 ) ) ;
#527 = ORIENTED_EDGE ( 'NONE', *, *, #859, .F. ) ;
#528 = CALENDAR_DATE ( 2025, 10, 6 ) ;
#529 = ADVANCED_FACE ( 'NONE', ( #841 ), #382, .F. ) ;
#530 = DIRECTION ( 'NONE',  ( 1.000000000000000000, 0.000000000000000000, 0.000000000000000000 ) ) ;
#531 = LINE ( 'NONE', #663, #897 ) ;
#532 = VERTEX_POINT ( 'NONE', #544 ) ;
#533 = VERTEX_POINT ( 'NONE', #677 ) ;
#534 = CARTESIAN_POINT ( 'NONE',  ( 55.00000000000000000, -5.000000000000000000, 7.000000000000000000 ) ) ;
#535 = DIRECTION ( 'NONE',  ( 0.000000000000000000, 0.000000000000000000, 1.000000000000000000 ) ) ;
#536 = VECTOR ( 'NONE', #271, 1000.000000000000000 ) ;
#537 = EDGE_CURVE ( 'NONE', #320, #919, #374, .T. ) ;
#538 = ORIENTED_EDGE ( 'NONE', *, *, #556, .F. ) ;
#539 = DIRECTION ( 'NONE',  ( 1.000000000000000000, 0.000000000000000000, 0.000000000000000000 ) ) ;
#540 = CARTESIAN_POINT ( 'NONE',  ( 0.000000000000000000, 0.000000000000000000, 7.000000000000000000 ) ) ;
#541 = DIRECTION ( 'NONE',  ( -1.000000000000000000, 0.000000000000000000, 0.000000000000000000 ) ) ;
#542 = VERTEX_POINT ( 'NONE', #689 ) ;
#543 = EDGE_LOOP ( 'NONE', ( #461, #479, #861, #838 ) ) ;
#544 = CARTESIAN_POINT ( 'NONE',  ( 26.00000000000000000, -86.39936655614370409, 67.79296840621499598 ) ) ;
#545 = CARTESIAN_POINT ( 'NONE',  ( 5.000000000000000000, -100.0000000000000000, 7.000000000000000000 ) ) ;
#546 = ORIENTED_EDGE ( 'NONE', *, *, #52, .F. ) ;
#547 = ORIENTED_EDGE ( 'NONE', *, *, #37, .T. ) ;
#548 = CARTESIAN_POINT ( 'NONE',  ( 60.00000000000000000, -55.00000000000000000, 62.00000000000000000 ) ) ;
#549 = AXIS2_PLACEMENT_3D ( 'NONE', #581, #867, #508 ) ;
#550 = EDGE_LOOP ( 'NONE', ( #368, #579, #407, #679 ) ) ;
#551 = CIRCLE ( 'NONE', #406, 5.000000000000004441 ) ;
#552 = DIRECTION ( 'NONE',  ( 0.000000000000000000, 0.000000000000000000, 1.000000000000000000 ) ) ;
#553 = EDGE_CURVE ( 'NONE', #55, #218, #829, .T. ) ;
#554 = EDGE_LOOP ( 'NONE', ( #734, #742, #502, #115, #476 ) ) ;
#555 = CARTESIAN_POINT ( 'NONE',  ( -0.4957416500345249721, -100.0000000000000000, 62.79296840621499598 ) ) ;
#556 = EDGE_CURVE ( 'NONE', #468, #772, #175, .T. ) ;
#557 = ORIENTED_EDGE ( 'NONE', *, *, #315, .T. ) ;
#558 = LINE ( 'NONE', #104, #339 ) ;
#559 = CARTESIAN_POINT ( 'NONE',  ( 60.00000000000000000, -100.0000000000000000, 57.00000000000000000 ) ) ;
#560 = LOCAL_TIME ( 9, 17, 26.00000000000000000, #19 ) ;
#561 = EDGE_LOOP ( 'NONE', ( #414, #671, #340, #73 ) ) ;
#562 = DIRECTION ( 'NONE',  ( -1.000000000000000000, 0.000000000000000000, 0.000000000000000000 ) ) ;
#563 = EDGE_CURVE ( 'NONE', #919, #875, #750, .T. ) ;
#564 = VECTOR ( 'NONE', #930, 1000.000000000000000 ) ;
#565 = CARTESIAN_POINT ( 'NONE',  ( 5.000000000000000000, -55.00000000000000000, 57.00000000000000000 ) ) ;
#566 = VECTOR ( 'NONE', #469, 1000.000000000000000 ) ;
#567 = LINE ( 'NONE', #851, #120 ) ;
#568 = AXIS2_PLACEMENT_3D ( 'NONE', #593, #366, #493 ) ;
#569 = ORIENTED_EDGE ( 'NONE', *, *, #415, .T. ) ;
#570 = DIRECTION ( 'NONE',  ( 1.000000000000000000, 0.000000000000000000, 0.000000000000000000 ) ) ;
#571 = CARTESIAN_POINT ( 'NONE',  ( 5.000000000000000000, -100.0000000000000000, 57.00000000000000000 ) ) ;
#572 = ORIENTED_EDGE ( 'NONE', *, *, #768, .F. ) ;
#573 = DIRECTION ( 'NONE',  ( 0.000000000000000000, 0.000000000000000000, 1.000000000000000000 ) ) ;
#574 = DIRECTION ( 'NONE',  ( 1.000000000000000000, 0.000000000000000000, 0.000000000000000000 ) ) ;
#575 = ORIENTED_EDGE ( 'NONE', *, *, #563, .T. ) ;
#576 = DIRECTION ( 'NONE',  ( 0.000000000000000000, -1.000000000000000000, 0.000000000000000000 ) ) ;
#577 = CARTESIAN_POINT ( 'NONE',  ( -0.4957416500345249721, -100.0000000000000000, 67.79296840621499598 ) ) ;
#578 = AXIS2_PLACEMENT_3D ( 'NONE', #336, #112, #707 ) ;
#579 = ORIENTED_EDGE ( 'NONE', *, *, #453, .F. ) ;
#580 = ADVANCED_FACE ( 'NONE', ( #310 ), #303, .F. ) ;
#581 = CARTESIAN_POINT ( 'NONE',  ( 60.00000000000000000, -100.0000000000000000, -45.33434874666149739 ) ) ;
#582 = PLANE ( 'NONE',  #685 ) ;
#583 = ORIENTED_EDGE ( 'NONE', *, *, #402, .T. ) ;
#584 = LINE ( 'NONE', #139, #849 ) ;
#585 = DIRECTION ( 'NONE',  ( 0.000000000000000000, 0.000000000000000000, 1.000000000000000000 ) ) ;
#586 = DIRECTION ( 'NONE',  ( 0.000000000000000000, 1.000000000000000000, 0.000000000000000000 ) ) ;
#587 = CARTESIAN_POINT ( 'NONE',  ( 60.49574165003449622, -55.00000000000000000, 62.79296840621499598 ) ) ;
#588 = CARTESIAN_POINT ( 'NONE',  ( 5.000000000000000000, 0.000000000000000000, 12.00000000000000000 ) ) ;
#589 = EDGE_CURVE ( 'NONE', #653, #542, #167, .T. ) ;
#590 = ORIENTED_EDGE ( 'NONE', *, *, #624, .T. ) ;
#591 = PLANE ( 'NONE',  #713 ) ;
#592 = VECTOR ( 'NONE', #723, 1000.000000000000000 ) ;
#593 = CARTESIAN_POINT ( 'NONE',  ( 26.00000000000000000, -86.39936655614370409, 49.79296840621499598 ) ) ;
#594 = AXIS2_PLACEMENT_3D ( 'NONE', #412, #332, #408 ) ;
#595 = VECTOR ( 'NONE', #945, 1000.000000000000000 ) ;
#596 = EDGE_CURVE ( 'NONE', #314, #233, #400, .T. ) ;
#597 = DIRECTION ( 'NONE',  ( 0.000000000000000000, 0.000000000000000000, -1.000000000000000000 ) ) ;
#598 = ORIENTED_EDGE ( 'NONE', *, *, #264, .T. ) ;
#599 = LINE ( 'NONE', #940, #43 ) ;
#600 = CARTESIAN_POINT ( 'NONE',  ( 60.00000000000000000, -55.00000000000000000, 57.00000000000000000 ) ) ;
#601 = UNCERTAINTY_MEASURE_WITH_UNIT (LENGTH_MEASURE( 1.000000000000000082E-05 ), #85, 'distance_accuracy_value', 'NONE');
#602 = ORIENTED_EDGE ( 'NONE', *, *, #856, .T. ) ;
#603 = ORIENTED_EDGE ( 'NONE', *, *, #138, .F. ) ;
#604 = CARTESIAN_POINT ( 'NONE',  ( 0.000000000000000000, 0.000000000000000000, 7.000000000000000000 ) ) ;
#605 = CARTESIAN_POINT ( 'NONE',  ( 55.00000000000000000, -55.00000000000000000, 7.000000000000000000 ) ) ;
#606 = EDGE_CURVE ( 'NONE', #817, #103, #609, .T. ) ;
#607 = ORIENTED_EDGE ( 'NONE', *, *, #790, .F. ) ;
#608 = APPLICATION_PROTOCOL_DEFINITION ( 'international standard', 'config_control_design', 1994, #525 ) ;
#609 = LINE ( 'NONE', #763, #804 ) ;
#610 = DIRECTION ( 'NONE',  ( 0.000000000000000000, 1.000000000000000000, 0.000000000000000000 ) ) ;
#611 = AXIS2_PLACEMENT_3D ( 'NONE', #792, #45, #862 ) ;
#612 = EDGE_LOOP ( 'NONE', ( #538, #326, #691, #701 ) ) ;
#613 = VECTOR ( 'NONE', #362, 1000.000000000000000 ) ;
#614 = VERTEX_POINT ( 'NONE', #894 ) ;
#615 = DIRECTION ( 'NONE',  ( 0.000000000000000000, 0.000000000000000000, 1.000000000000000000 ) ) ;
#616 = EDGE_LOOP ( 'NONE', ( #36, #827, #86, #272, #471, #546, #497, #467, #752, #709 ) ) ;
#617 = DIRECTION ( 'NONE',  ( 0.000000000000000000, 0.000000000000000000, -1.000000000000000000 ) ) ;
#618 = EDGE_CURVE ( 'NONE', #882, #320, #824, .T. ) ;
#619 = ORIENTED_EDGE ( 'NONE', *, *, #717, .F. ) ;
#620 = DIRECTION ( 'NONE',  ( 0.000000000000000000, 0.000000000000000000, 1.000000000000000000 ) ) ;
#621 = EDGE_CURVE ( 'NONE', #506, #146, #551, .T. ) ;
#622 = PERSON ( 'UNSPECIFIED', 'UNSPECIFIED', 'UNSPECIFIED', ('UNSPECIFIED'), ('UNSPECIFIED'), ('UNSPECIFIED') ) ;
#623 = AXIS2_PLACEMENT_3D ( 'NONE', #845, #918, #409 ) ;
#624 = EDGE_CURVE ( 'NONE', #218, #817, #92, .T. ) ;
#625 = EDGE_LOOP ( 'NONE', ( #572, #527, #223, #472 ) ) ;
#626 = AXIS2_PLACEMENT_3D ( 'NONE', #864, #915, #574 ) ;
#627 = DIRECTION ( 'NONE',  ( 0.000000000000000000, -1.000000000000000000, 0.000000000000000000 ) ) ;
#628 = ORIENTED_EDGE ( 'NONE', *, *, #354, .T. ) ;
#629 = PLANE ( 'NONE',  #594 ) ;
#630 = PLANE ( 'NONE',  #195 ) ;
#631 = APPROVAL ( #688, 'UNSPECIFIED' ) ;
#632 = CARTESIAN_POINT ( 'NONE',  ( 60.00000000000000000, -42.32196763497815795, 0.000000000000000000 ) ) ;
#633 = CARTESIAN_POINT ( 'NONE',  ( 0.000000000000000000, -100.0000000000000000, 12.00000000000000000 ) ) ;
#634 = PLANE ( 'NONE',  #484 ) ;
#635 = ORIENTED_EDGE ( 'NONE', *, *, #228, .F. ) ;
#636 = DIRECTION ( 'NONE',  ( 0.000000000000000000, 0.000000000000000000, 1.000000000000000000 ) ) ;
#637 = DIRECTION ( 'NONE',  ( 0.000000000000000000, 0.000000000000000000, -1.000000000000000000 ) ) ;
#638 = VECTOR ( 'NONE', #744, 1000.000000000000000 ) ;
#639 = DIRECTION ( 'NONE',  ( 0.000000000000000000, -1.000000000000000000, 0.000000000000000000 ) ) ;
#640 = AXIS2_PLACEMENT_3D ( 'NONE', #466, #240, #318 ) ;
#641 = EDGE_LOOP ( 'NONE', ( #910, #141, #185, #892 ) ) ;
#642 = FACE_OUTER_BOUND ( 'NONE', #268, .T. ) ;
#643 = DIRECTION ( 'NONE',  ( 0.000000000000000000, 1.000000000000000000, 0.000000000000000000 ) ) ;
#644 = EDGE_LOOP ( 'NONE', ( #852, #455, #794, #396 ) ) ;
#645 = ADVANCED_FACE ( 'NONE', ( #839 ), #695, .F. ) ;
#646 = CARTESIAN_POINT ( 'NONE',  ( 0.000000000000000000, -55.00000000000000000, 7.000000000000000000 ) ) ;
#647 = LINE ( 'NONE', #251, #536 ) ;
#648 = VERTEX_POINT ( 'NONE', #850 ) ;
#649 = CC_DESIGN_APPROVAL ( #177, ( #344 ) ) ;
#650 = DIRECTION ( 'NONE',  ( 0.000000000000000000, 0.000000000000000000, -1.000000000000000000 ) ) ;
#651 = FACE_OUTER_BOUND ( 'NONE', #543, .T. ) ;
#652 = VECTOR ( 'NONE', #692, 1000.000000000000000 ) ;
#653 = VERTEX_POINT ( 'NONE', #480 ) ;
#654 = DIRECTION ( 'NONE',  ( 0.000000000000000000, 0.000000000000000000, -1.000000000000000000 ) ) ;
#655 = CYLINDRICAL_SURFACE ( 'NONE', #306, 5.000000000000004441 ) ;
#656 = DIRECTION ( 'NONE',  ( 0.000000000000000000, -1.000000000000000000, 0.000000000000000000 ) ) ;
#657 = CARTESIAN_POINT ( 'NONE',  ( 65.49574165003450332, -55.00000000000000000, -45.33434874666149739 ) ) ;
#658 = EDGE_CURVE ( 'NONE', #90, #427, #703, .T. ) ;
#659 = FACE_OUTER_BOUND ( 'NONE', #903, .T. ) ;
#660 = VERTEX_POINT ( 'NONE', #178 ) ;
#661 = CARTESIAN_POINT ( 'NONE',  ( 55.00000000000000000, 0.000000000000000000, 12.00000000000000000 ) ) ;
#662 = EDGE_CURVE ( 'NONE', #103, #90, #914, .T. ) ;
#663 = CARTESIAN_POINT ( 'NONE',  ( 55.00000000000000000, 0.000000000000000000, 7.000000000000000000 ) ) ;
#664 = CARTESIAN_POINT ( 'NONE',  ( 5.000000000000000000, 0.000000000000000000, 7.000000000000000000 ) ) ;
#665 = VERTEX_POINT ( 'NONE', #483 ) ;
#666 = DATE_AND_TIME ( #69, #452 ) ;
#667 = DIRECTION ( 'NONE',  ( 0.000000000000000000, 0.000000000000000000, -1.000000000000000000 ) ) ;
#668 = AXIS2_PLACEMENT_3D ( 'NONE', #256, #643, #490 ) ;
#669 = DIRECTION ( 'NONE',  ( 0.000000000000000000, 0.000000000000000000, 1.000000000000000000 ) ) ;
#670 = AXIS2_PLACEMENT_3D ( 'NONE', #860, #192, #499 ) ;
#671 = ORIENTED_EDGE ( 'NONE', *, *, #354, .F. ) ;
#672 = ORIENTED_EDGE ( 'NONE', *, *, #624, .F. ) ;
#673 = APPROVAL_ROLE ( '' ) ;
#674 = LINE ( 'NONE', #387, #922 ) ;
#675 = CARTESIAN_POINT ( 'NONE',  ( 55.00000000000000000, 0.000000000000000000, 0.000000000000000000 ) ) ;
#676 = ORIENTED_EDGE ( 'NONE', *, *, #319, .F. ) ;
#677 = CARTESIAN_POINT ( 'NONE',  ( 55.00000000000000000, -100.0000000000000000, 62.00000000000000000 ) ) ;
#678 =( NAMED_UNIT ( * ) PLANE_ANGLE_UNIT ( ) SI_UNIT ( $, .RADIAN. ) );
#679 = ORIENTED_EDGE ( 'NONE', *, *, #267, .F. ) ;
#680 = ORIENTED_EDGE ( 'NONE', *, *, #360, .F. ) ;
#681 = APPROVAL_DATE_TIME ( #883, #631 ) ;
#682 = DIRECTION ( 'NONE',  ( 0.000000000000000000, 1.000000000000000000, 0.000000000000000000 ) ) ;
#683 = CARTESIAN_POINT ( 'NONE',  ( 5.000000000000000000, -100.0000000000000000, 62.00000000000000000 ) ) ;
#684 = AXIS2_PLACEMENT_3D ( 'NONE', #442, #526, #282 ) ;
#685 = AXIS2_PLACEMENT_3D ( 'NONE', #876, #63, #656 ) ;
#686 = AXIS2_PLACEMENT_3D ( 'NONE', #741, #654, #811 ) ;
#687 = VERTEX_POINT ( 'NONE', #769 ) ;
#688 = APPROVAL_STATUS ( 'not_yet_approved' ) ;
#689 = CARTESIAN_POINT ( 'NONE',  ( 0.000000000000000000, -55.00000000000000000, 57.00000000000000000 ) ) ;
#690 = EDGE_CURVE ( 'NONE', #660, #927, #558, .T. ) ;
#691 = ORIENTED_EDGE ( 'NONE', *, *, #902, .T. ) ;
#692 = DIRECTION ( 'NONE',  ( 0.000000000000000000, 0.000000000000000000, 1.000000000000000000 ) ) ;
#693 = ADVANCED_FACE ( 'NONE', ( #107 ), #629, .T. ) ;
#694 = ORIENTED_EDGE ( 'NONE', *, *, #402, .F. ) ;
#695 = PLANE ( 'NONE',  #273 ) ;
#696 = VECTOR ( 'NONE', #519, 1000.000000000000000 ) ;
#697 = EDGE_LOOP ( 'NONE', ( #276, #174, #364, #449, #482, #410, #801, #832 ) ) ;
#698 = VECTOR ( 'NONE', #255, 1000.000000000000000 ) ;
#699 = CARTESIAN_POINT ( 'NONE',  ( 5.000000000000000000, -100.0000000000000000, 12.00000000000000000 ) ) ;
#700 = EDGE_CURVE ( 'NONE', #875, #542, #121, .T. ) ;
#701 = ORIENTED_EDGE ( 'NONE', *, *, #816, .T. ) ;
#702 = ORIENTED_EDGE ( 'NONE', *, *, #621, .T. ) ;
#703 = LINE ( 'NONE', #34, #211 ) ;
#704 = CYLINDRICAL_SURFACE ( 'NONE', #863, 4.999999999999997335 ) ;
#705 = EDGE_LOOP ( 'NONE', ( #158, #129, #384, #307 ) ) ;
#706 = CYLINDRICAL_SURFACE ( 'NONE', #372, 4.999999999999997335 ) ;
#707 = DIRECTION ( 'NONE',  ( -1.000000000000000000, 0.000000000000000000, 0.000000000000000000 ) ) ;
#708 = DIRECTION ( 'NONE',  ( 0.000000000000000000, 1.000000000000000000, 0.000000000000000000 ) ) ;
#709 = ORIENTED_EDGE ( 'NONE', *, *, #722, .T. ) ;
#710 = DIRECTION ( 'NONE',  ( -0.3977248818969940647, 0.9175047238679602257, 0.000000000000000000 ) ) ;
#711 = PLANE ( 'NONE',  #549 ) ;
#712 = AXIS2_PLACEMENT_3D ( 'NONE', #777, #265, #367 ) ;
#713 = AXIS2_PLACEMENT_3D ( 'NONE', #604, #215, #54 ) ;
#714 = CARTESIAN_POINT ( 'NONE',  ( 60.49574165003449622, -55.00000000000000000, 67.79296840621499598 ) ) ;
#715 = AXIS2_PLACEMENT_3D ( 'NONE', #587, #132, #669 ) ;
#716 = ORIENTED_EDGE ( 'NONE', *, *, #553, .F. ) ;
#717 = EDGE_CURVE ( 'NONE', #882, #653, #489, .T. ) ;
#718 = CARTESIAN_POINT ( 'NONE',  ( 26.00000000000000000, -86.39936655614370409, 62.00000000000000000 ) ) ;
#719 = EDGE_CURVE ( 'NONE', #124, #665, #404, .T. ) ;
#720 = DIRECTION ( 'NONE',  ( 0.000000000000000000, 0.000000000000000000, 1.000000000000000000 ) ) ;
#721 = ORIENTED_EDGE ( 'NONE', *, *, #143, .F. ) ;
#722 = EDGE_CURVE ( 'NONE', #103, #294, #456, .T. ) ;
#723 = DIRECTION ( 'NONE',  ( 0.000000000000000000, 1.000000000000000000, 0.000000000000000000 ) ) ;
#724 = FACE_OUTER_BOUND ( 'NONE', #641, .T. ) ;
#725 = ORIENTED_EDGE ( 'NONE', *, *, #596, .T. ) ;
#726 = CARTESIAN_POINT ( 'NONE',  ( -5.495741650034529968, -55.00000000000000000, 7.000000000000000000 ) ) ;
#727 = AXIS2_PLACEMENT_3D ( 'NONE', #130, #929, #432 ) ;
#728 = DIRECTION ( 'NONE',  ( -0.3977248818969940647, -0.9175047238679602257, 0.000000000000000000 ) ) ;
#729 = VECTOR ( 'NONE', #562, 1000.000000000000000 ) ;
#730 = VECTOR ( 'NONE', #321, 1000.000000000000000 ) ;
#731 = EDGE_CURVE ( 'NONE', #927, #882, #938, .T. ) ;
#732 = CARTESIAN_POINT ( 'NONE',  ( 0.000000000000000000, -100.0000000000000000, 57.00000000000000000 ) ) ;
#733 = FACE_OUTER_BOUND ( 'NONE', #644, .T. ) ;
#734 = ORIENTED_EDGE ( 'NONE', *, *, #248, .T. ) ;
#735 = DIRECTION ( 'NONE',  ( 0.000000000000000000, 0.000000000000000000, 1.000000000000000000 ) ) ;
#736 = LINE ( 'NONE', #65, #394 ) ;
#737 = CARTESIAN_POINT ( 'NONE',  ( 55.00000000000000000, -55.00000000000000000, 12.00000000000000000 ) ) ;
#738 = ORIENTED_EDGE ( 'NONE', *, *, #125, .T. ) ;
#739 = DATE_TIME_ROLE ( 'classification_date' ) ;
#740 = CARTESIAN_POINT ( 'NONE',  ( 55.00000000000000000, -100.0000000000000000, 12.00000000000000000 ) ) ;
#741 = CARTESIAN_POINT ( 'NONE',  ( 55.00000000000000000, -5.000000000000000000, 0.000000000000000000 ) ) ;
#742 = ORIENTED_EDGE ( 'NONE', *, *, #830, .T. ) ;
#743 = PERSON_AND_ORGANIZATION ( #622, #253 ) ;
#744 = DIRECTION ( 'NONE',  ( 1.000000000000000000, 0.000000000000000000, 0.000000000000000000 ) ) ;
#745 = CARTESIAN_POINT ( 'NONE',  ( 55.00000000000000000, -100.0000000000000000, 7.000000000000000000 ) ) ;
#746 = VECTOR ( 'NONE', #183, 1000.000000000000000 ) ;
#747 = PRODUCT_DEFINITION_SHAPE ( 'NONE', 'NONE',  #344 ) ;
#748 = EDGE_CURVE ( 'NONE', #55, #776, #531, .T. ) ;
#749 = ORIENTED_EDGE ( 'NONE', *, *, #24, .F. ) ;
#750 = LINE ( 'NONE', #101, #391 ) ;
#751 = DIRECTION ( 'NONE',  ( 0.000000000000000000, 0.000000000000000000, 1.000000000000000000 ) ) ;
#752 = ORIENTED_EDGE ( 'NONE', *, *, #662, .F. ) ;
#753 = APPROVAL_STATUS ( 'not_yet_approved' ) ;
#754 = CARTESIAN_POINT ( 'NONE',  ( 26.00000000000000000, -94.39936655614370409, 49.79296840621499598 ) ) ;
#755 = CARTESIAN_POINT ( 'NONE',  ( -5.495741650034529968, -100.0000000000000000, -45.33434874666149739 ) ) ;
#756 = ORIENTED_EDGE ( 'NONE', *, *, #589, .T. ) ;
#757 = DIRECTION ( 'NONE',  ( 0.000000000000000000, -1.000000000000000000, 0.000000000000000000 ) ) ;
#758 = EDGE_CURVE ( 'NONE', #614, #916, #286, .T. ) ;
#759 = DESIGN_CONTEXT ( 'detailed design', #525, 'design' ) ;
#760 = VECTOR ( 'NONE', #353, 1000.000000000000000 ) ;
#761 = VECTOR ( 'NONE', #535, 1000.000000000000000 ) ;
#762 = ORIENTED_EDGE ( 'NONE', *, *, #503, .F. ) ;
#763 = CARTESIAN_POINT ( 'NONE',  ( 6.123233995736771213E-16, -5.000000000000000000, 7.000000000000000000 ) ) ;
#764 = EDGE_CURVE ( 'NONE', #865, #290, #149, .T. ) ;
#765 = ORIENTED_EDGE ( 'NONE', *, *, #816, .F. ) ;
#766 = DIRECTION ( 'NONE',  ( 0.000000000000000000, 0.000000000000000000, 1.000000000000000000 ) ) ;
#767 = ORIENTED_EDGE ( 'NONE', *, *, #717, .T. ) ;
#768 = EDGE_CURVE ( 'NONE', #687, #818, #584, .T. ) ;
#769 = CARTESIAN_POINT ( 'NONE',  ( 65.49574165003450332, -55.00000000000000000, 7.000000000000000000 ) ) ;
#770 = SECURITY_CLASSIFICATION ( '', '', #819 ) ;
#771 = VECTOR ( 'NONE', #428, 1000.000000000000000 ) ;
#772 = VERTEX_POINT ( 'NONE', #511 ) ;
#773 = AXIS2_PLACEMENT_3D ( 'NONE', #565, #327, #917 ) ;
#774 = DIRECTION ( 'NONE',  ( 0.000000000000000000, -1.000000000000000000, 0.000000000000000000 ) ) ;
#775 = PLANE ( 'NONE',  #626 ) ;
#776 = VERTEX_POINT ( 'NONE', #675 ) ;
#777 = CARTESIAN_POINT ( 'NONE',  ( -5.495741650034529968, -55.00000000000000000, 0.000000000000000000 ) ) ;
#778 = DIRECTION ( 'NONE',  ( 0.000000000000000000, 0.000000000000000000, 1.000000000000000000 ) ) ;
#779 = CARTESIAN_POINT ( 'NONE',  ( 26.00000000000000000, -55.00000000000000000, 62.00000000000000000 ) ) ;
#780 = ORIENTED_EDGE ( 'NONE', *, *, #66, .T. ) ;
#781 = CARTESIAN_POINT ( 'NONE',  ( 6.123233995736771213E-16, -5.000000000000000000, 7.000000000000000000 ) ) ;
#782 = LINE ( 'NONE', #936, #592 ) ;
#783 = EDGE_CURVE ( 'NONE', #427, #189, #798, .T. ) ;
#784 = CARTESIAN_POINT ( 'NONE',  ( 55.00000000000000000, 0.000000000000000000, 7.000000000000000000 ) ) ;
#785 = ORIENTED_EDGE ( 'NONE', *, *, #939, .T. ) ;
#786 = PRODUCT_RELATED_PRODUCT_CATEGORY ( 'detail', '', ( #383 ) ) ;
#787 = CARTESIAN_POINT ( 'NONE',  ( 60.00000000000000000, -5.000000000000000000, 0.000000000000000000 ) ) ;
#788 = CIRCLE ( 'NONE', #623, 4.999999999999997335 ) ;
#789 = CARTESIAN_POINT ( 'NONE',  ( 55.00000000000000000, -100.0000000000000000, 57.00000000000000000 ) ) ;
#790 = EDGE_CURVE ( 'NONE', #229, #532, #221, .T. ) ;
#791 = ORIENTED_EDGE ( 'NONE', *, *, #52, .T. ) ;
#792 = CARTESIAN_POINT ( 'NONE',  ( 5.000000000000000000, -5.000000000000000000, 7.000000000000000000 ) ) ;
#793 = DIRECTION ( 'NONE',  ( 0.000000000000000000, 0.000000000000000000, 1.000000000000000000 ) ) ;
#794 = ORIENTED_EDGE ( 'NONE', *, *, #138, .T. ) ;
#795 = PLANE ( 'NONE',  #727 ) ;
#796 = ADVANCED_FACE ( 'NONE', ( #72 ), #371, .F. ) ;
#797 = LINE ( 'NONE', #522, #836 ) ;
#798 = LINE ( 'NONE', #186, #436 ) ;
#799 = CC_DESIGN_SECURITY_CLASSIFICATION ( #770, ( #25 ) ) ;
#800 = DIRECTION ( 'NONE',  ( 0.000000000000000000, 0.000000000000000000, 1.000000000000000000 ) ) ;
#801 = ORIENTED_EDGE ( 'NONE', *, *, #902, .F. ) ;
#802 = AXIS2_PLACEMENT_3D ( 'NONE', #737, #359, #800 ) ;
#803 = LINE ( 'NONE', #2, #245 ) ;
#804 = VECTOR ( 'NONE', #231, 1000.000000000000000 ) ;
#805 = VECTOR ( 'NONE', #853, 1000.000000000000000 ) ;
#806 = DIRECTION ( 'NONE',  ( 0.000000000000000000, 0.000000000000000000, 1.000000000000000000 ) ) ;
#807 = PLANE ( 'NONE',  #684 ) ;
#808 = ORIENTED_EDGE ( 'NONE', *, *, #920, .F. ) ;
#809 = PERSON_AND_ORGANIZATION ( #622, #253 ) ;
#810 = CYLINDRICAL_SURFACE ( 'NONE', #288, 5.000000000000000888 ) ;
#811 = DIRECTION ( 'NONE',  ( -1.000000000000000000, 0.000000000000000000, 0.000000000000000000 ) ) ;
#812 = ORIENTED_EDGE ( 'NONE', *, *, #866, .T. ) ;
#813 = PERSON_AND_ORGANIZATION_ROLE ( 'classification_officer' ) ;
#814 = PLANE ( 'NONE',  #134 ) ;
#815 = DIRECTION ( 'NONE',  ( 0.000000000000000000, 1.000000000000000000, 0.000000000000000000 ) ) ;
#816 = EDGE_CURVE ( 'NONE', #316, #772, #870, .T. ) ;
#817 = VERTEX_POINT ( 'NONE', #781 ) ;
#818 = VERTEX_POINT ( 'NONE', #204 ) ;
#819 = SECURITY_CLASSIFICATION_LEVEL ( 'unclassified' ) ;
#820 = DIRECTION ( 'NONE',  ( 0.000000000000000000, 0.000000000000000000, 1.000000000000000000 ) ) ;
#821 = LINE ( 'NONE', #901, #16 ) ;
#822 = VERTEX_POINT ( 'NONE', #745 ) ;
#823 = CALENDAR_DATE ( 2025, 10, 6 ) ;
#824 = LINE ( 'NONE', #160, #652 ) ;
#825 = LINE ( 'NONE', #906, #761 ) ;
#826 = ADVANCED_BREP_SHAPE_REPRESENTATION ( 'pixhawk_gps_mount', ( #509, #352 ), #304 ) ;
#827 = ORIENTED_EDGE ( 'NONE', *, *, #885, .T. ) ;
#828 = ORIENTED_EDGE ( 'NONE', *, *, #589, .F. ) ;
#829 = LINE ( 'NONE', #540, #909 ) ;
#830 = EDGE_CURVE ( 'NONE', #350, #48, #300, .T. ) ;
#831 = EDGE_CURVE ( 'NONE', #233, #350, #212, .T. ) ;
#832 = ORIENTED_EDGE ( 'NONE', *, *, #421, .T. ) ;
#833 = DIRECTION ( 'NONE',  ( 0.000000000000000000, 0.000000000000000000, -1.000000000000000000 ) ) ;
#834 = DIRECTION ( 'NONE',  ( 0.000000000000000000, 0.000000000000000000, 1.000000000000000000 ) ) ;
#835 = CLOSED_SHELL ( 'NONE', ( #64, #341, #84, #151, #507, #796, #529, #157, #127, #693, #295, #173, #429, #242, #958, #113, #278, #270, #379, #109, #491, #523, #645, #881, #448, #580, #313 ) ) ;
#836 = VECTOR ( 'NONE', #131, 1000.000000000000000 ) ;
#837 = VECTOR ( 'NONE', #398, 1000.000000000000000 ) ;
#838 = ORIENTED_EDGE ( 'NONE', *, *, #465, .T. ) ;
#839 = FACE_OUTER_BOUND ( 'NONE', #907, .T. ) ;
#840 = ORIENTED_EDGE ( 'NONE', *, *, #563, .F. ) ;
#841 = FACE_OUTER_BOUND ( 'NONE', #51, .T. ) ;
#842 = EDGE_CURVE ( 'NONE', #431, #48, #447, .T. ) ;
#843 = ORIENTED_EDGE ( 'NONE', *, *, #690, .T. ) ;
#844 = DIRECTION ( 'NONE',  ( -0.3977248818969940647, -0.9175047238679602257, 0.000000000000000000 ) ) ;
#845 = CARTESIAN_POINT ( 'NONE',  ( 55.00000000000000000, -5.000000000000000000, 7.000000000000000000 ) ) ;
#846 = ORIENTED_EDGE ( 'NONE', *, *, #866, .F. ) ;
#847 = VECTOR ( 'NONE', #820, 1000.000000000000000 ) ;
#848 = FACE_OUTER_BOUND ( 'NONE', #513, .T. ) ;
#849 = VECTOR ( 'NONE', #378, 1000.000000000000227 ) ;
#850 = CARTESIAN_POINT ( 'NONE',  ( 60.00000000000000000, -5.000000000000000000, 7.000000000000000000 ) ) ;
#851 = CARTESIAN_POINT ( 'NONE',  ( 65.49574165003450332, -55.00000000000000000, -45.33434874666149739 ) ) ;
#852 = ORIENTED_EDGE ( 'NONE', *, *, #888, .T. ) ;
#853 = DIRECTION ( 'NONE',  ( 0.000000000000000000, -1.000000000000000000, 0.000000000000000000 ) ) ;
#854 = LINE ( 'NONE', #126, #771 ) ;
#855 = DIRECTION ( 'NONE',  ( 0.000000000000000000, 1.000000000000000000, 0.000000000000000000 ) ) ;
#856 = EDGE_CURVE ( 'NONE', #96, #648, #736, .T. ) ;
#857 = EDGE_LOOP ( 'NONE', ( #380, #765, #676, #95 ) ) ;
#858 = DIRECTION ( 'NONE',  ( 1.000000000000000000, 0.000000000000000000, 0.000000000000000000 ) ) ;
#859 = EDGE_CURVE ( 'NONE', #614, #687, #3, .T. ) ;
#860 = CARTESIAN_POINT ( 'NONE',  ( 60.49574165003449622, -100.0000000000000000, 62.79296840621499598 ) ) ;
#861 = ORIENTED_EDGE ( 'NONE', *, *, #662, .T. ) ;
#862 = DIRECTION ( 'NONE',  ( -1.000000000000000000, 0.000000000000000000, 0.000000000000000000 ) ) ;
#863 = AXIS2_PLACEMENT_3D ( 'NONE', #571, #855, #188 ) ;
#864 = CARTESIAN_POINT ( 'NONE',  ( 60.00000000000000000, -55.00000000000000000, -45.33434874666149739 ) ) ;
#865 = VERTEX_POINT ( 'NONE', #116 ) ;
#866 = EDGE_CURVE ( 'NONE', #542, #320, #216, .T. ) ;
#867 = DIRECTION ( 'NONE',  ( -1.000000000000000000, 0.000000000000000000, 0.000000000000000000 ) ) ;
#868 = LINE ( 'NONE', #208, #847 ) ;
#869 = ORIENTED_EDGE ( 'NONE', *, *, #700, .F. ) ;
#870 = LINE ( 'NONE', #600, #135 ) ;
#871 = LINE ( 'NONE', #512, #357 ) ;
#872 = FACE_BOUND ( 'NONE', #520, .T. ) ;
#873 = CARTESIAN_POINT ( 'NONE',  ( 65.49574165003450332, -100.0000000000000000, -45.33434874666149739 ) ) ;
#874 = CARTESIAN_POINT ( 'NONE',  ( -5.495741650034529968, -100.0000000000000000, -1.387778780781445991E-14 ) ) ;
#875 = VERTEX_POINT ( 'NONE', #60 ) ;
#876 = CARTESIAN_POINT ( 'NONE',  ( 0.000000000000000000, 0.000000000000000000, 67.79296840621499598 ) ) ;
#877 = AXIS2_PLACEMENT_3D ( 'NONE', #534, #440, #275 ) ;
#878 = CIRCLE ( 'NONE', #640, 4.999999999999997335 ) ;
#879 = DIRECTION ( 'NONE',  ( 0.000000000000000000, 0.000000000000000000, 1.000000000000000000 ) ) ;
#880 = LINE ( 'NONE', #217, #257 ) ;
#881 = ADVANCED_FACE ( 'NONE', ( #957, #949 ), #417, .F. ) ;
#882 = VERTEX_POINT ( 'NONE', #293 ) ;
#883 = DATE_AND_TIME ( #528, #560 ) ;
#884 = DIRECTION ( 'NONE',  ( 0.000000000000000000, 0.000000000000000000, 1.000000000000000000 ) ) ;
#885 = EDGE_CURVE ( 'NONE', #776, #96, #924, .T. ) ;
#886 = CARTESIAN_POINT ( 'NONE',  ( 26.00000000000000000, -94.39936655614370409, 67.79296840621499598 ) ) ;
#887 = VERTEX_POINT ( 'NONE', #145 ) ;
#888 = EDGE_CURVE ( 'NONE', #18, #259, #942, .T. ) ;
#889 = DIRECTION ( 'NONE',  ( 0.000000000000000000, 1.000000000000000000, 0.000000000000000000 ) ) ;
#890 = LINE ( 'NONE', #8, #518 ) ;
#891 = ORIENTED_EDGE ( 'NONE', *, *, #415, .F. ) ;
#892 = ORIENTED_EDGE ( 'NONE', *, *, #748, .F. ) ;
#893 = MECHANICAL_CONTEXT ( 'NONE', #4, 'mechanical' ) ;
#894 = CARTESIAN_POINT ( 'NONE',  ( 65.49574165003450332, -55.00000000000000000, 0.000000000000000000 ) ) ;
#895 = VECTOR ( 'NONE', #345, 1000.000000000000000 ) ;
#896 = LINE ( 'NONE', #305, #437 ) ;
#897 = VECTOR ( 'NONE', #435, 1000.000000000000000 ) ;
#898 = CC_DESIGN_PERSON_AND_ORGANIZATION_ASSIGNMENT ( #381, #142, ( #25 ) ) ;
#899 = EDGE_LOOP ( 'NONE', ( #628, #207, #200, #42 ) ) ;
#900 = DIRECTION ( 'NONE',  ( 0.000000000000000000, 1.000000000000000000, 0.000000000000000000 ) ) ;
#901 = CARTESIAN_POINT ( 'NONE',  ( 55.00000000000000000, -100.0000000000000000, 62.00000000000000000 ) ) ;
#902 = EDGE_CURVE ( 'NONE', #439, #316, #825, .T. ) ;
#903 = EDGE_LOOP ( 'NONE', ( #749, #619, #959, #492 ) ) ;
#904 = VERTEX_POINT ( 'NONE', #605 ) ;
#905 = DIRECTION ( 'NONE',  ( 0.000000000000000000, 0.000000000000000000, 1.000000000000000000 ) ) ;
#906 = CARTESIAN_POINT ( 'NONE',  ( 60.00000000000000000, -100.0000000000000000, -45.33434874666149739 ) ) ;
#907 = EDGE_LOOP ( 'NONE', ( #716, #17, #119, #385 ) ) ;
#908 = CARTESIAN_POINT ( 'NONE',  ( 5.000000000000000000, -5.000000000000000000, 7.000000000000000000 ) ) ;
#909 = VECTOR ( 'NONE', #7, 1000.000000000000000 ) ;
#910 = ORIENTED_EDGE ( 'NONE', *, *, #239, .F. ) ;
#911 = DIRECTION ( 'NONE',  ( 1.000000000000000000, 0.000000000000000000, 0.000000000000000000 ) ) ;
#912 = EDGE_CURVE ( 'NONE', #919, #533, #890, .T. ) ;
#913 = ORIENTED_EDGE ( 'NONE', *, *, #360, .T. ) ;
#914 = LINE ( 'NONE', #250, #698 ) ;
#915 = DIRECTION ( 'NONE',  ( -0.000000000000000000, 1.000000000000000000, 0.000000000000000000 ) ) ;
#916 = VERTEX_POINT ( 'NONE', #470 ) ;
#917 = DIRECTION ( 'NONE',  ( 0.000000000000000000, 0.000000000000000000, 1.000000000000000000 ) ) ;
#918 = DIRECTION ( 'NONE',  ( 0.000000000000000000, 0.000000000000000000, 1.000000000000000000 ) ) ;
#919 = VERTEX_POINT ( 'NONE', #683 ) ;
#920 = EDGE_CURVE ( 'NONE', #427, #124, #896, .T. ) ;
#921 = CIRCLE ( 'NONE', #57, 5.000000000000000888 ) ;
#922 = VECTOR ( 'NONE', #238, 1000.000000000000000 ) ;
#923 = CARTESIAN_POINT ( 'NONE',  ( 5.000000000000000000, -55.00000000000000000, 12.00000000000000000 ) ) ;
#924 = CIRCLE ( 'NONE', #686, 4.999999999999997335 ) ;
#925 = EDGE_CURVE ( 'NONE', #189, #146, #21, .T. ) ;
#926 = CARTESIAN_POINT ( 'NONE',  ( 5.000000000000000000, 0.000000000000000000, 0.000000000000000000 ) ) ;
#927 = VERTEX_POINT ( 'NONE', #545 ) ;
#928 = EDGE_CURVE ( 'NONE', #222, #533, #821, .T. ) ;
#929 = DIRECTION ( 'NONE',  ( 1.000000000000000000, 0.000000000000000000, 0.000000000000000000 ) ) ;
#930 = DIRECTION ( 'NONE',  ( 0.000000000000000000, 1.000000000000000000, 0.000000000000000000 ) ) ;
#931 = EDGE_LOOP ( 'NONE', ( #598, #237, #110, #694 ) ) ;
#932 = DIRECTION ( 'NONE',  ( 8.673617379884033500E-16, 0.000000000000000000, 1.000000000000000000 ) ) ;
#933 = FACE_BOUND ( 'NONE', #561, .T. ) ;
#935 = ORIENTED_EDGE ( 'NONE', *, *, #553, .T. ) ;
#934 = EDGE_CURVE ( 'NONE', #665, #330, #342, .T. ) ;
#936 = CARTESIAN_POINT ( 'NONE',  ( 60.00000000000000000, 0.000000000000000000, 0.000000000000000000 ) ) ;
#937 = VECTOR ( 'NONE', #269, 1000.000000000000000 ) ;
#938 = CIRCLE ( 'NONE', #358, 5.000000000000000888 ) ;
#939 = EDGE_CURVE ( 'NONE', #772, #222, #878, .T. ) ;
#940 = CARTESIAN_POINT ( 'NONE',  ( 0.000000000000000000, -42.32196763497815795, 0.000000000000000000 ) ) ;
#941 = ORIENTED_EDGE ( 'NONE', *, *, #934, .T. ) ;
#942 = LINE ( 'NONE', #277, #837 ) ;
#943 = CARTESIAN_POINT ( 'NONE',  ( -0.4957416500345249721, 0.000000000000000000, 62.79296840621499598 ) ) ;
#944 = FACE_OUTER_BOUND ( 'NONE', #213, .T. ) ;
#945 = DIRECTION ( 'NONE',  ( -1.000000000000000000, 0.000000000000000000, 0.000000000000000000 ) ) ;
#946 = DIRECTION ( 'NONE',  ( 0.000000000000000000, 1.000000000000000000, 0.000000000000000000 ) ) ;
#947 = ORIENTED_EDGE ( 'NONE', *, *, #722, .F. ) ;
#948 = CARTESIAN_POINT ( 'NONE',  ( 60.00000000000000000, -100.0000000000000000, 7.000000000000000000 ) ) ;
#949 = FACE_OUTER_BOUND ( 'NONE', #165, .T. ) ;
#950 = CARTESIAN_POINT ( 'NONE',  ( 5.000000000000000000, 0.000000000000000000, 7.000000000000000000 ) ) ;
#951 = APPROVAL ( #463, 'UNSPECIFIED' ) ;
#952 = ORIENTED_EDGE ( 'NONE', *, *, #503, .T. ) ;
#953 = VECTOR ( 'NONE', #570, 1000.000000000000000 ) ;
#954 = CALENDAR_DATE ( 2025, 10, 6 ) ;
#955 = CARTESIAN_POINT ( 'NONE',  ( 65.49574165003450332, -100.0000000000000000, 67.79296840621499598 ) ) ;
#956 = VECTOR ( 'NONE', #13, 1000.000000000000000 ) ;
#957 = FACE_BOUND ( 'NONE', #697, .T. ) ;
#958 = ADVANCED_FACE ( 'NONE', ( #395 ), #93, .T. ) ;
#959 = ORIENTED_EDGE ( 'NONE', *, *, #731, .F. ) ;
ENDSEC;
END-ISO-10303-21;
